<svg width="11" height="11" viewBox="0 0 11 11" fill="none" xmlns="http://www.w3.org/2000/svg">
<path d="M0.46967 9.71186C0.176777 10.0048 0.176777 10.4796 0.46967 10.7725C0.762563 11.0654 1.23744 11.0654 1.53033 10.7725L0.46967 9.71186ZM10.75 1.24219C10.75 0.827974 10.4142 0.492188 10 0.492188L3.25 0.492187C2.83579 0.492187 2.5 0.827974 2.5 1.24219C2.5 1.6564 2.83579 1.99219 3.25 1.99219H9.25V7.99219C9.25 8.4064 9.58579 8.74219 10 8.74219C10.4142 8.74219 10.75 8.4064 10.75 7.99219L10.75 1.24219ZM1.53033 10.7725L10.5303 1.77252L9.46967 0.711857L0.46967 9.71186L1.53033 10.7725Z" fill="#495363"/>
</svg>
