<svg width="20" height="20" viewBox="0 0 20 20" fill="none" xmlns="http://www.w3.org/2000/svg">
<path d="M9.98789 17.8686C9.87891 17.8686 9.76926 17.8424 9.66855 17.7906C8.54284 17.2035 7.29198 16.8969 6.02234 16.8969C4.75271 16.8969 3.50185 17.2035 2.37613 17.7906C2.27094 17.8452 2.15349 17.8717 2.03508 17.8677C1.91666 17.8638 1.80126 17.8294 1.69994 17.768C1.59863 17.7066 1.51481 17.6201 1.45654 17.517C1.39827 17.4138 1.3675 17.2974 1.36719 17.1789V4.07549C1.36718 3.96424 1.39409 3.85465 1.44562 3.75605C1.49714 3.65746 1.57175 3.57279 1.66309 3.50928C4.27066 1.69482 7.77414 1.69482 10.3824 3.50928C10.4735 3.57294 10.5479 3.65766 10.5993 3.75623C10.6507 3.8548 10.6776 3.96432 10.6776 4.07549V17.1789C10.6776 17.2695 10.6597 17.3592 10.6251 17.4429C10.5904 17.5265 10.5396 17.6026 10.4756 17.6666C10.4116 17.7306 10.3355 17.7814 10.2519 17.8161C10.1682 17.8507 10.0785 17.8686 9.98789 17.8686ZM6.02234 15.5176C7.14145 15.5174 8.25132 15.72 9.2982 16.1155V4.44791C8.31162 3.84577 7.17816 3.5272 6.02234 3.5272C4.86652 3.5272 3.73307 3.84577 2.74648 4.44791V16.1155C3.79337 15.72 4.90324 15.5174 6.02234 15.5176Z" fill="#7F899A"/>
<path d="M17.919 17.8686C17.8101 17.8686 17.7004 17.8424 17.5997 17.7906C16.474 17.2035 15.2231 16.8969 13.9535 16.8969C12.6839 16.8969 11.433 17.2035 10.3073 17.7906C10.1484 17.8729 9.96377 17.8904 9.79226 17.8394C9.62076 17.7883 9.47572 17.6728 9.38768 17.517C9.32941 17.4138 9.29864 17.2974 9.29834 17.1789V4.07549C9.29829 3.96424 9.32517 3.85463 9.3767 3.75603C9.42822 3.65743 9.50284 3.57277 9.5942 3.50928C12.2018 1.69482 15.7052 1.69482 18.3135 3.50928C18.4046 3.57294 18.479 3.65766 18.5304 3.75623C18.5818 3.85481 18.6086 3.96433 18.6087 4.07549V17.1789C18.6087 17.2695 18.5908 17.3592 18.5562 17.4429C18.5215 17.5265 18.4707 17.6026 18.4067 17.6666C18.3426 17.7306 18.2666 17.7814 18.1829 17.8161C18.0993 17.8507 18.0096 17.8686 17.919 17.8686ZM13.9535 15.5176C15.0638 15.5176 16.1749 15.7169 17.2294 16.1155V4.44791C16.2428 3.84578 15.1093 3.52722 13.9535 3.52722C12.7977 3.52722 11.6642 3.84578 10.6776 4.44791V16.1155C11.7245 15.72 12.8344 15.5174 13.9535 15.5176Z" fill="#7F899A"/>
</svg>
