<svg width="20" height="21" viewBox="0 0 20 21" fill="none" xmlns="http://www.w3.org/2000/svg">
<path d="M13.5555 18.5H4.66665C3.95431 18.5 3.28467 18.2226 2.78102 17.7189C2.27738 17.2152 2 16.5456 2 15.8333V6.94444C2 6.23213 2.27741 5.56249 2.78105 5.05884C3.2847 4.5552 3.95434 4.27779 4.66668 4.27779H8.22223C8.71317 4.27779 9.11112 4.67574 9.11112 5.16668C9.11112 5.65763 8.71317 6.05558 8.22223 6.05558H4.66665C4.4292 6.05558 4.20601 6.14805 4.03815 6.31591C3.87029 6.48377 3.77779 6.70699 3.77779 6.94444V15.8333C3.77779 16.0708 3.87026 16.294 4.03815 16.4619C4.20601 16.6297 4.4292 16.7222 4.66665 16.7222H13.5555C13.7929 16.7222 14.0161 16.6297 14.184 16.4618C14.3519 16.294 14.4444 16.0707 14.4444 15.8333V12.2778C14.4444 11.7868 14.8423 11.3889 15.3333 11.3889C15.8242 11.3889 16.2222 11.7869 16.2222 12.2778V15.8333C16.2222 16.5456 15.9448 17.2152 15.4411 17.7189C14.9374 18.2226 14.2678 18.5 13.5555 18.5ZM8.22223 13.1666C7.99472 13.1666 7.76724 13.0799 7.59369 12.9063C7.24658 12.5592 7.24658 11.9963 7.59369 11.6492L14.9651 4.27779H11.7778C11.2868 4.27779 10.8889 3.87984 10.8889 3.38889C10.8889 2.89795 11.2868 2.5 11.7778 2.5H17.1111C17.3432 2.49973 17.5662 2.59053 17.732 2.75288L17.7321 2.75294L17.7338 2.75468L17.7344 2.75518L17.7357 2.75654L17.7366 2.75744L17.7376 2.75844L17.7395 2.76036L17.7415 2.76229L17.7424 2.76328L17.7433 2.76418C17.744 2.76477 17.7446 2.7654 17.7452 2.76608L17.7469 2.76785L17.747 2.76791C17.9093 2.93381 18.0001 3.15675 17.9999 3.38886V8.7222C17.9999 9.21314 17.6019 9.61109 17.1109 9.61109C16.62 9.61109 16.2221 9.21314 16.2221 8.7222V5.53488L8.8506 12.9063C8.67718 13.0799 8.44971 13.1666 8.22223 13.1666Z" fill="white"/>
</svg>
