<svg width="17" height="17" viewBox="0 0 17 17" fill="none" xmlns="http://www.w3.org/2000/svg">
<path d="M16.8503 3.37746L11.6945 8.5L16.8503 13.6225C16.9435 13.4277 17 13.2124 17 12.9824V4.01758C17 3.78758 16.9435 3.57226 16.8503 3.37746ZM15.5059 2.52344H1.49414C1.26414 2.52344 1.04882 2.57998 0.854018 2.67318L7.44361 9.22957C8.02626 9.81222 8.97374 9.81222 9.55639 9.22957L16.146 2.67318C15.9512 2.57998 15.7359 2.52344 15.5059 2.52344ZM0.149746 3.37746C0.0565449 3.57226 0 3.78758 0 4.01758V12.9824C0 13.2124 0.0565449 13.4278 0.149746 13.6225L5.30549 8.5L0.149746 3.37746Z" fill="#38C4DC"/>
<path d="M10.9907 9.20422L10.2611 9.9338C9.29031 10.9046 7.71061 10.9046 6.73978 9.9338L6.01024 9.20422L0.854492 14.3268C1.04929 14.42 1.26462 14.4765 1.49462 14.4765H15.5063C15.7363 14.4765 15.9517 14.42 16.1465 14.3268L10.9907 9.20422Z" fill="#38C4DC"/>
</svg>
