<svg width="37" height="37" viewBox="0 0 37 37" fill="none" xmlns="http://www.w3.org/2000/svg">
<rect x="0.166504" y="0.5" width="36" height="36" rx="18" fill="#495363" fill-opacity="0.2"/>
<g clip-path="url(#clip0_6_15083)">
<path d="M26.5168 13.3775L21.361 18.5L26.5168 23.6225C26.61 23.4277 26.6665 23.2124 26.6665 22.9824V14.0176C26.6665 13.7876 26.61 13.5723 26.5168 13.3775ZM25.1724 12.5234H11.1606C10.9306 12.5234 10.7153 12.58 10.5205 12.6732L17.1101 19.2296C17.6928 19.8122 18.6402 19.8122 19.2229 19.2296L25.8125 12.6732C25.6177 12.58 25.4024 12.5234 25.1724 12.5234ZM9.81625 13.3775C9.72305 13.5723 9.6665 13.7876 9.6665 14.0176V22.9824C9.6665 23.2124 9.72305 23.4278 9.81625 23.6225L14.972 18.5L9.81625 13.3775Z" fill="white"/>
<path d="M20.6572 19.2041L19.9276 19.9337C18.9568 20.9045 17.3771 20.9045 16.4063 19.9337L15.6767 19.2041L10.521 24.3266C10.7158 24.4198 10.9311 24.4764 11.1611 24.4764H25.1728C25.4028 24.4764 25.6182 24.4198 25.813 24.3266L20.6572 19.2041Z" fill="white"/>
</g>
<defs>
<clipPath id="clip0_6_15083">
<rect width="17" height="17" fill="white" transform="translate(9.6665 10)"/>
</clipPath>
</defs>
</svg>
