<svg width="19" height="19" viewBox="0 0 19 19" fill="none" xmlns="http://www.w3.org/2000/svg">
<g clip-path="url(#clip0_6_15023)">
<path d="M11.1804 9.49988L18.6519 2.02836C18.7623 1.91808 18.8499 1.78713 18.9096 1.64298C18.9694 1.49884 19.0001 1.34433 19.0001 1.18829C19.0001 1.03225 18.9694 0.877746 18.9096 0.733601C18.8499 0.589456 18.7623 0.458501 18.6519 0.348222C18.5416 0.23783 18.4107 0.150255 18.2665 0.0905047C18.1224 0.0307543 17.9679 0 17.8119 0C17.6558 0 17.5013 0.0307543 17.3572 0.0905047C17.213 0.150255 17.0821 0.23783 16.9718 0.348222L9.50027 7.81974L2.02836 0.348222C1.91808 0.23783 1.78713 0.150255 1.64298 0.0905047C1.49884 0.0307543 1.34433 0 1.18829 0C1.03225 0 0.877746 0.0307543 0.733601 0.0905047C0.589456 0.150255 0.458501 0.23783 0.348222 0.348222C0.23783 0.458501 0.150255 0.589456 0.0905047 0.733601C0.0307543 0.877746 0 1.03225 0 1.18829C0 1.34433 0.0307543 1.49884 0.0905047 1.64298C0.150255 1.78713 0.23783 1.91808 0.348222 2.02836L7.82013 9.49988L0.348222 16.9714C0.237929 17.0817 0.150444 17.2127 0.0907638 17.3568C0.0310833 17.5009 0.000375635 17.6554 0.000394022 17.8114C0.000412408 17.9674 0.0311565 18.1219 0.090871 18.266C0.150585 18.4101 0.238101 18.541 0.34842 18.6513C0.45874 18.7616 0.589703 18.8491 0.733833 18.9088C0.877962 18.9685 1.03244 18.9992 1.18843 18.9992C1.34443 18.9991 1.4989 18.9684 1.64301 18.9087C1.78713 18.849 1.91807 18.7615 2.02836 18.6511L9.50027 11.1796L16.9718 18.6511C17.2039 18.8832 17.5081 18.9993 17.8119 18.9993C18.1156 18.9993 18.4198 18.8832 18.6519 18.6511C18.7623 18.5409 18.8499 18.4099 18.9096 18.2658C18.9694 18.1216 19.0001 17.9671 19.0001 17.8111C19.0001 17.655 18.9694 17.5005 18.9096 17.3564C18.8499 17.2122 18.7623 17.0813 18.6519 16.971L11.1804 9.49988Z" fill="#750D59"/>
</g>
<defs>
<clipPath id="clip0_6_15023">
<rect width="19" height="19" fill="white"/>
</clipPath>
</defs>
</svg>
