<svg width="25" height="24" viewBox="0 0 25 24" fill="none" xmlns="http://www.w3.org/2000/svg">
<g clip-path="url(#clip0_133_10344)">
<path d="M24.2395 11.4814L22.7856 10.1327C22.6864 10.0408 22.6104 9.92674 22.5637 9.79988L21.4218 6.69934C21.2585 6.26237 20.966 5.88555 20.5831 5.6191C20.2002 5.35264 19.7452 5.20921 19.2787 5.20792H17.5487V4.72257C17.5487 4.51385 17.4658 4.31368 17.3182 4.16609C17.1706 4.0185 16.9704 3.93559 16.7617 3.93559H6.30638C6.15081 3.93376 6.00066 3.99267 5.88785 4.0998C5.77503 4.20693 5.70845 4.35384 5.70225 4.50929C5.7008 4.587 5.71485 4.66422 5.74358 4.73643C5.77232 4.80865 5.81515 4.87441 5.86959 4.92988C5.92403 4.98535 5.98898 5.02941 6.06064 5.05949C6.13231 5.08957 6.20925 5.10507 6.28697 5.10507H16.3792V10.1792C16.3792 10.3879 16.4621 10.588 16.6097 10.7356C16.7572 10.8832 16.9574 10.9661 17.1661 10.9661H21.9189L23.3304 12.2364V16.9751H22.0507C21.9233 16.4175 21.6104 15.9196 21.1631 15.5631C20.7159 15.2065 20.1608 15.0123 19.5888 15.0123C19.0168 15.0123 18.4618 15.2065 18.0145 15.5631C17.5673 15.9196 17.2543 16.4175 17.1269 16.9751H13.1891C13.0616 16.4175 12.7487 15.9196 12.3014 15.5631C11.8542 15.2065 11.2991 15.0123 10.7272 15.0123C10.1552 15.0123 9.60012 15.2065 9.15287 15.5631C8.70562 15.9196 8.39267 16.4175 8.26523 16.9751H6.30633C6.15074 16.9733 6.00058 17.0322 5.88777 17.1394C5.77496 17.2465 5.7084 17.3935 5.70225 17.5489C5.7008 17.6266 5.71485 17.7039 5.74358 17.7761C5.77232 17.8483 5.81516 17.914 5.8696 17.9695C5.92404 18.025 5.98899 18.069 6.06065 18.0991C6.13231 18.1292 6.20925 18.1447 6.28697 18.1447H8.27508C8.41052 18.6926 8.72559 19.1794 9.17001 19.5273C9.61443 19.8752 10.1626 20.0643 10.727 20.0643C11.2914 20.0643 11.8396 19.8752 12.284 19.5273C12.7284 19.1794 13.0435 18.6926 13.1789 18.1447H17.1368C17.2723 18.6926 17.5874 19.1794 18.0318 19.5273C18.4762 19.8752 19.0243 20.0643 19.5888 20.0643C20.1532 20.0643 20.7013 19.8752 21.1457 19.5273C21.5902 19.1794 21.9052 18.6926 22.0407 18.1447H23.713C23.9217 18.1447 24.1219 18.0618 24.2695 17.9142C24.4171 17.7666 24.5 17.5664 24.5 17.3577V12.0663C24.4999 11.956 24.4767 11.847 24.4318 11.7462C24.387 11.6454 24.3215 11.5552 24.2395 11.4814ZM17.5487 9.79679V6.37735H19.2787C19.5065 6.37798 19.7286 6.44801 19.9156 6.57811C20.1025 6.70821 20.2454 6.8922 20.3251 7.10556L21.3219 9.79679H17.5487ZM10.727 18.8946C10.4587 18.8946 10.1965 18.8151 9.97342 18.666C9.75036 18.517 9.5765 18.3051 9.47384 18.0573C9.37118 17.8094 9.34432 17.5367 9.39666 17.2736C9.449 17.0104 9.57819 16.7687 9.7679 16.579C9.9576 16.3893 10.1993 16.2602 10.4624 16.2078C10.7255 16.1555 10.9983 16.1824 11.2461 16.285C11.494 16.3877 11.7058 16.5616 11.8549 16.7846C12.0039 17.0077 12.0834 17.27 12.0834 17.5382C12.083 17.8979 11.94 18.2426 11.6857 18.4969C11.4314 18.7512 11.0866 18.8942 10.727 18.8946ZM19.5888 18.8946C19.3205 18.8946 19.0582 18.8151 18.8352 18.666C18.6121 18.517 18.4382 18.3052 18.3356 18.0573C18.2329 17.8094 18.206 17.5367 18.2584 17.2736C18.3107 17.0105 18.4399 16.7688 18.6296 16.5791C18.8193 16.3894 19.061 16.2602 19.3241 16.2078C19.5872 16.1555 19.86 16.1824 20.1078 16.285C20.3557 16.3877 20.5675 16.5616 20.7166 16.7846C20.8656 17.0077 20.9452 17.27 20.9452 17.5382C20.9447 17.8979 20.8017 18.2426 20.5474 18.4969C20.2931 18.7512 19.9484 18.8942 19.5888 18.8946Z" fill="#5B8F21"/>
<path d="M3.79018 8.37641H10.4218C10.5769 8.37641 10.7256 8.3148 10.8353 8.20512C10.945 8.09545 11.0066 7.9467 11.0066 7.7916C11.0066 7.6365 10.945 7.48775 10.8353 7.37807C10.7256 7.2684 10.5769 7.20679 10.4218 7.20679H3.79018C3.63508 7.20679 3.48633 7.2684 3.37666 7.37807C3.26698 7.48775 3.20537 7.6365 3.20537 7.7916C3.20537 7.9467 3.26698 8.09545 3.37666 8.20512C3.48633 8.3148 3.63508 8.37641 3.79018 8.37641ZM11.0066 11.0401C11.0066 10.885 10.945 10.7362 10.8353 10.6266C10.7256 10.5169 10.5769 10.4553 10.4218 10.4553H1.08517C1.00793 10.4546 0.931321 10.4692 0.859765 10.4983C0.788208 10.5274 0.72312 10.5703 0.66826 10.6247C0.6134 10.6791 0.569853 10.7438 0.540136 10.8151C0.510418 10.8863 0.495117 10.9628 0.495117 11.0401C0.495117 11.1173 0.510418 11.1938 0.540136 11.2651C0.569853 11.3364 0.6134 11.4011 0.66826 11.4554C0.72312 11.5098 0.788208 11.5528 0.859765 11.5818C0.931321 11.6109 1.00793 11.6255 1.08517 11.6248H10.4218C10.5769 11.6248 10.7256 11.5632 10.8353 11.4536C10.945 11.3439 11.0066 11.1952 11.0066 11.0401ZM7.3037 14.2886C7.3037 14.2118 7.28857 14.1357 7.25918 14.0648C7.2298 13.9938 7.18672 13.9294 7.13242 13.8751C7.07812 13.8208 7.01366 13.7777 6.94271 13.7483C6.87176 13.7189 6.79572 13.7038 6.71893 13.7038H2.65435C2.50016 13.7052 2.35276 13.7674 2.24422 13.8769C2.13567 13.9864 2.07478 14.1344 2.07478 14.2886C2.07478 14.4428 2.13567 14.5907 2.24422 14.7003C2.35276 14.8098 2.50016 14.872 2.65435 14.8734H6.71893C6.87402 14.8734 7.02276 14.8117 7.13243 14.7021C7.24209 14.5924 7.3037 14.4437 7.3037 14.2886Z" fill="#5B8F21"/>
</g>
<defs>
<clipPath id="clip0_133_10344">
<rect width="24" height="24" fill="white" transform="translate(0.5)"/>
</clipPath>
</defs>
</svg>
