<svg width="24" height="24" viewBox="0 0 24 24" fill="none" xmlns="http://www.w3.org/2000/svg">
<g clip-path="url(#clip0_6_417)">
<path d="M23.7395 11.4815L22.2856 10.1328C22.1864 10.0409 22.1104 9.92686 22.0637 9.80001L20.9218 6.69946C20.7585 6.2625 20.466 5.88568 20.0831 5.61922C19.7002 5.35277 19.2452 5.20933 18.7787 5.20804H17.0487V4.72269C17.0487 4.51397 16.9658 4.3138 16.8182 4.16621C16.6706 4.01862 16.4704 3.93571 16.2617 3.93571H5.80638C5.65081 3.93388 5.50066 3.99279 5.38785 4.09992C5.27503 4.20705 5.20845 4.35396 5.20225 4.50941C5.2008 4.58712 5.21485 4.66434 5.24358 4.73655C5.27232 4.80877 5.31515 4.87453 5.36959 4.93C5.42403 4.98547 5.48898 5.02953 5.56064 5.05961C5.63231 5.08969 5.70925 5.10519 5.78697 5.1052H15.8792V10.1793C15.8792 10.388 15.9621 10.5882 16.1097 10.7358C16.2572 10.8833 16.4574 10.9663 16.6661 10.9663H21.4189L22.8304 12.2366V16.9752H21.5507C21.4233 16.4176 21.1104 15.9198 20.6631 15.5632C20.2159 15.2066 19.6608 15.0124 19.0888 15.0124C18.5168 15.0124 17.9618 15.2066 17.5145 15.5632C17.0673 15.9198 16.7543 16.4176 16.6269 16.9752H12.6891C12.5616 16.4176 12.2487 15.9198 11.8014 15.5632C11.3542 15.2066 10.7991 15.0124 10.2272 15.0124C9.65517 15.0124 9.10012 15.2066 8.65287 15.5632C8.20562 15.9198 7.89267 16.4176 7.76523 16.9752H5.80633C5.65074 16.9734 5.50058 17.0323 5.38777 17.1395C5.27496 17.2466 5.2084 17.3936 5.20225 17.5491C5.2008 17.6268 5.21485 17.704 5.24358 17.7762C5.27232 17.8484 5.31516 17.9142 5.3696 17.9696C5.42404 18.0251 5.48899 18.0691 5.56065 18.0992C5.63231 18.1293 5.70925 18.1448 5.78697 18.1448H7.77508C7.91052 18.6927 8.22559 19.1795 8.67001 19.5274C9.11443 19.8753 9.66258 20.0644 10.227 20.0644C10.7914 20.0644 11.3396 19.8753 11.784 19.5274C12.2284 19.1795 12.5435 18.6927 12.6789 18.1448H16.6368C16.7723 18.6927 17.0874 19.1795 17.5318 19.5274C17.9762 19.8753 18.5243 20.0644 19.0888 20.0644C19.6532 20.0644 20.2013 19.8753 20.6457 19.5274C21.0902 19.1795 21.4052 18.6927 21.5407 18.1448H23.213C23.4217 18.1448 23.6219 18.0619 23.7695 17.9143C23.9171 17.7667 24 17.5666 24 17.3579V12.0664C23.9999 11.9561 23.9767 11.8471 23.9318 11.7463C23.887 11.6456 23.8215 11.5554 23.7395 11.4815ZM17.0487 9.79691V6.37748H18.7787C19.0065 6.3781 19.2286 6.44813 19.4156 6.57823C19.6025 6.70833 19.7454 6.89232 19.8251 7.10568L20.8219 9.79691H17.0487ZM10.227 18.8947C9.95874 18.8947 9.69649 18.8152 9.47342 18.6661C9.25036 18.5171 9.0765 18.3052 8.97384 18.0574C8.87118 17.8095 8.84432 17.5368 8.89666 17.2737C8.949 17.0106 9.07819 16.7689 9.2679 16.5792C9.4576 16.3895 9.6993 16.2603 9.96242 16.208C10.2255 16.1556 10.4983 16.1825 10.7461 16.2852C10.994 16.3878 11.2058 16.5617 11.3549 16.7848C11.5039 17.0078 11.5834 17.2701 11.5834 17.5384C11.583 17.898 11.44 18.2428 11.1857 18.497C10.9314 18.7513 10.5866 18.8943 10.227 18.8947ZM19.0888 18.8947C18.8205 18.8948 18.5582 18.8152 18.3352 18.6662C18.1121 18.5171 17.9382 18.3053 17.8356 18.0574C17.7329 17.8096 17.706 17.5368 17.7584 17.2737C17.8107 17.0106 17.9399 16.7689 18.1296 16.5792C18.3193 16.3895 18.561 16.2603 18.8241 16.208C19.0872 16.1556 19.36 16.1825 19.6078 16.2852C19.8557 16.3878 20.0675 16.5617 20.2166 16.7848C20.3656 17.0078 20.4452 17.2701 20.4452 17.5384C20.4447 17.898 20.3017 18.2427 20.0474 18.497C19.7931 18.7513 19.4484 18.8943 19.0888 18.8947Z" fill="#5FBBFF"/>
<path d="M3.28969 8.37666H9.92129C10.0764 8.37666 10.2251 8.31504 10.3348 8.20537C10.4445 8.0957 10.5061 7.94695 10.5061 7.79184C10.5061 7.63674 10.4445 7.48799 10.3348 7.37832C10.2251 7.26864 10.0764 7.20703 9.92129 7.20703H3.28969C3.13459 7.20703 2.98584 7.26864 2.87617 7.37832C2.76649 7.48799 2.70488 7.63674 2.70488 7.79184C2.70488 7.94695 2.76649 8.0957 2.87617 8.20537C2.98584 8.31504 3.13459 8.37666 3.28969 8.37666ZM10.5061 11.0403C10.5061 10.8852 10.4445 10.7365 10.3348 10.6268C10.2251 10.5171 10.0764 10.4555 9.92129 10.4555H0.584677C0.507441 10.4548 0.430833 10.4694 0.359276 10.4985C0.28772 10.5276 0.222632 10.5706 0.167772 10.6249C0.112911 10.6793 0.0693652 10.744 0.0396474 10.8153C0.00992955 10.8866 -0.00537109 10.9631 -0.00537109 11.0403C-0.00537109 11.1175 0.00992955 11.194 0.0396474 11.2653C0.0693652 11.3366 0.112911 11.4013 0.167772 11.4557C0.222632 11.51 0.28772 11.553 0.359276 11.5821C0.430833 11.6112 0.507441 11.6258 0.584677 11.6251H9.92129C10.0764 11.6251 10.2251 11.5635 10.3348 11.4538C10.4445 11.3442 10.5061 11.1954 10.5061 11.0403ZM6.80321 14.2888C6.80321 14.212 6.78808 14.136 6.7587 14.065C6.72931 13.9941 6.68623 13.9296 6.63193 13.8753C6.57763 13.821 6.51317 13.7779 6.44222 13.7486C6.37128 13.7192 6.29524 13.704 6.21844 13.704H2.15386C1.99968 13.7054 1.85227 13.7676 1.74373 13.8772C1.63519 13.9867 1.57429 14.1346 1.57429 14.2888C1.57429 14.443 1.63519 14.591 1.74373 14.7005C1.85227 14.81 1.99968 14.8722 2.15386 14.8736H6.21844C6.37354 14.8736 6.52227 14.812 6.63194 14.7023C6.7416 14.5926 6.80321 14.4439 6.80321 14.2888Z" fill="#5FBBFF"/>
</g>
<defs>
<clipPath id="clip0_6_417">
<rect width="24" height="24" fill="white"/>
</clipPath>
</defs>
</svg>
