<svg width="24" height="24" viewBox="0 0 24 24" fill="none" xmlns="http://www.w3.org/2000/svg">
<g clip-path="url(#clip0_6_456)">
<path d="M17.2461 15.4334C17.4358 15.2571 17.4466 14.9604 17.2703 14.7706C17.0939 14.5809 16.7972 14.5701 16.6075 14.7464C15.353 15.9125 13.7166 16.5547 11.9996 16.5547C10.6276 16.5547 9.30697 16.1474 8.18049 15.3769C7.90182 15.1862 7.63754 14.9754 7.38979 14.746C7.19981 14.5699 6.9031 14.5812 6.72706 14.7712C6.55101 14.9611 6.56227 15.2578 6.75224 15.4339C7.03385 15.6946 7.33422 15.9343 7.65095 16.151C8.93406 17.0288 10.4378 17.4927 11.9996 17.4927C13.9543 17.4927 15.8175 16.7614 17.2461 15.4334ZM11.9996 2.06653C10.0451 2.06653 8.18171 2.79782 6.7528 4.12571C6.56306 4.30204 6.55218 4.59875 6.72851 4.78849C6.90479 4.97818 7.2015 4.98902 7.39124 4.81278C8.64607 3.64668 10.2827 3.00444 11.9996 3.00444C13.7166 3.00444 15.353 3.64663 16.6075 4.81274C16.6942 4.89352 16.8083 4.93838 16.9267 4.93823C16.9912 4.93832 17.055 4.92508 17.1142 4.89932C17.1733 4.87357 17.2265 4.83587 17.2703 4.78858C17.4466 4.59884 17.4358 4.30214 17.2461 4.12581C15.8175 2.79787 13.9543 2.06653 11.9996 2.06653Z" fill="#6AE9FF"/>
<path d="M23.8677 18.1277L20.2998 14.5598C20.4616 14.2791 20.609 13.9903 20.7414 13.6946H21.0484C21.8535 13.6946 22.5085 13.0396 22.5085 12.2345V11.898C22.5085 11.639 22.2985 11.429 22.0395 11.429C21.7805 11.429 21.5706 11.639 21.5706 11.898V12.2345C21.5706 12.5224 21.3363 12.7567 21.0484 12.7567H2.95104C2.6631 12.7567 2.42881 12.5224 2.42881 12.2345V7.32374C2.42881 7.03576 2.6631 6.80151 2.95104 6.80151H21.0484C21.3363 6.80151 21.5706 7.03576 21.5706 7.32374V7.77253C21.5706 8.03149 21.7805 8.24149 22.0395 8.24149C22.2985 8.24149 22.5085 8.03149 22.5085 7.77253V7.32374C22.5085 6.51864 21.8535 5.8636 21.0484 5.8636H20.7414C20.2648 4.79912 19.6035 3.83921 18.7715 3.00724C16.9626 1.19843 14.5577 0.202271 11.9998 0.202271C9.442 0.202271 7.03696 1.19843 5.22763 3.00724C4.39561 3.83926 3.73433 4.79917 3.25778 5.8636H2.95104C2.14593 5.8636 1.49089 6.51864 1.49089 7.32374V12.2345C1.49089 13.0396 2.14589 13.6946 2.95104 13.6946H3.25741C3.38995 13.9904 3.53739 14.2792 3.69916 14.5601L0.13186 18.1278C-0.139619 18.3993 0.0334726 18.8901 0.419752 18.9262L4.48931 19.3075L4.87057 23.377C4.90644 23.7595 5.39383 23.9402 5.66906 23.6649L10.1559 19.1785C11.3703 19.4151 12.6299 19.4149 13.8444 19.1792L18.3305 23.6649C18.6024 23.9368 19.0928 23.7631 19.129 23.377L19.5103 19.3075L23.5799 18.9262C23.9621 18.8905 24.142 18.4021 23.8677 18.1277ZM5.89083 3.67053C7.52298 2.0388 9.69251 1.14018 11.9998 1.14018C14.3073 1.14018 16.4766 2.0388 18.1083 3.67048C18.7578 4.31999 19.2923 5.05545 19.703 5.86365H4.29614C4.70681 5.05545 5.24132 4.31999 5.89083 3.67053ZM5.71131 22.2964L5.38689 18.8331C5.37671 18.7244 5.32885 18.6225 5.25158 18.5453C5.17432 18.468 5.07249 18.4202 4.9637 18.41L1.50046 18.0855L4.21909 15.3666C4.86616 16.267 5.66854 17.0526 6.59886 17.689C7.36813 18.2157 8.21053 18.6267 9.09914 18.9089L5.71131 22.2964ZM10.1003 18.2086C7.88047 17.7107 5.90766 16.3161 4.68702 14.3817C4.6858 14.3797 4.68434 14.3781 4.68308 14.3762C4.54387 14.155 4.4148 13.9276 4.29628 13.6946H19.7029C19.5844 13.9277 19.4552 14.1552 19.3158 14.3765C18.0583 16.3015 16.1562 17.7043 13.8937 18.21C12.6501 18.4879 11.3438 18.4873 10.1003 18.2086ZM19.0359 18.41C18.9271 18.4202 18.8253 18.468 18.748 18.5453C18.6708 18.6225 18.6229 18.7244 18.6127 18.8331L18.2883 22.2964L14.9016 18.9101C16.8557 18.2915 18.5829 17.0279 19.7794 15.3658L22.4991 18.0855L19.0359 18.41Z" fill="#6AE9FF"/>
<path d="M7.42236 8.03939V11.5197C7.42236 11.7786 7.63231 11.9886 7.89132 11.9886C8.15032 11.9886 8.36028 11.7786 8.36028 11.5197V8.03939C8.36028 7.78043 8.15032 7.57043 7.89132 7.57043C7.63231 7.57043 7.42236 7.78043 7.42236 8.03939ZM11.0253 11.0507C10.6888 11.0507 10.3653 10.9154 10.16 10.6888C9.98605 10.4969 9.68944 10.4824 9.49759 10.6563C9.30569 10.8302 9.29111 11.1268 9.46504 11.3187C9.8509 11.7444 10.4196 11.9886 11.0253 11.9886C11.7752 11.9886 12.4051 11.5089 12.5232 10.8478C12.6122 10.349 12.3875 9.69809 11.4898 9.36701C11.0681 9.21145 10.6751 9.04216 10.5484 8.98682C10.4706 8.92145 10.4734 8.83193 10.4788 8.79432C10.4867 8.73931 10.5272 8.60476 10.7318 8.54314C11.2049 8.40077 11.6467 8.74906 11.6584 8.75849C11.8567 8.92272 12.1506 8.89627 12.3165 8.69898C12.4831 8.5007 12.4575 8.20493 12.2593 8.03827C12.2259 8.01013 11.4295 7.35345 10.4613 7.64505C9.96809 7.79366 9.61909 8.18294 9.55044 8.66104C9.48596 9.11044 9.68076 9.54277 10.0589 9.7893C10.0797 9.80281 10.1014 9.81467 10.124 9.82475C10.1442 9.83371 10.6244 10.0475 11.1652 10.247C11.278 10.2886 11.6427 10.443 11.5999 10.683C11.5676 10.8637 11.3439 11.0507 11.0253 11.0507ZM13.0971 9.77955C13.0971 10.9977 14.0881 11.9886 15.3062 11.9886C16.5242 11.9886 17.5152 10.9976 17.5152 9.77955C17.5152 8.56148 16.5242 7.57048 15.3062 7.57048C14.0881 7.57048 13.0971 8.56143 13.0971 9.77955ZM16.5774 9.77955C16.5774 10.4804 16.0071 11.0507 15.3062 11.0507C14.6053 11.0507 14.0351 10.4804 14.0351 9.77955C14.0351 9.07864 14.6053 8.50839 15.3062 8.50839C16.0071 8.50839 16.5774 9.0786 16.5774 9.77955ZM22.4727 9.60017C22.3757 9.36372 22.0959 9.24888 21.8602 9.34647C21.6243 9.44415 21.5086 9.72304 21.6065 9.95897C21.7044 10.1949 21.983 10.3101 22.219 10.2127C22.4548 10.1153 22.5708 9.83582 22.4727 9.60017Z" fill="#6AE9FF"/>
</g>
<defs>
<clipPath id="clip0_6_456">
<rect width="24" height="24" fill="white"/>
</clipPath>
</defs>
</svg>
