<svg width="25" height="24" viewBox="0 0 25 24" fill="none" xmlns="http://www.w3.org/2000/svg">
<g clip-path="url(#clip0_133_10383)">
<path d="M17.7466 15.4335C17.9363 15.2572 17.9471 14.9605 17.7708 14.7708C17.5944 14.581 17.2977 14.5702 17.108 14.7466C15.8535 15.9126 14.2171 16.5549 12.5001 16.5549C11.1281 16.5549 9.80746 16.1475 8.68098 15.377C8.40231 15.1863 8.13803 14.9755 7.89027 14.7461C7.7003 14.5701 7.40359 14.5813 7.22755 14.7713C7.0515 14.9613 7.06275 15.258 7.25273 15.4341C7.53434 15.6948 7.83471 15.9344 8.15144 16.1511C9.43455 17.0289 10.9383 17.4928 12.5001 17.4928C14.4548 17.4928 16.318 16.7615 17.7466 15.4335ZM12.5001 2.06665C10.5456 2.06665 8.6822 2.79794 7.25329 4.12584C7.06355 4.30216 7.05267 4.59887 7.229 4.78861C7.40528 4.97831 7.70199 4.98914 7.89173 4.8129C9.14656 3.6468 10.7832 3.00456 12.5001 3.00456C14.2171 3.00456 15.8535 3.64675 17.108 4.81286C17.1947 4.89364 17.3087 4.9385 17.4272 4.93835C17.4917 4.93844 17.5555 4.9252 17.6146 4.89945C17.6738 4.87369 17.7269 4.83599 17.7708 4.78871C17.9471 4.59897 17.9363 4.30226 17.7466 4.12593C16.318 2.79799 14.4548 2.06665 12.5001 2.06665Z" fill="#750D59"/>
<path d="M24.3677 18.1279L20.7998 14.56C20.9616 14.2792 21.109 13.9904 21.2414 13.6947H21.5484C22.3535 13.6947 23.0085 13.0397 23.0085 12.2346V11.8981C23.0085 11.6392 22.7985 11.4292 22.5395 11.4292C22.2805 11.4292 22.0706 11.6392 22.0706 11.8981V12.2346C22.0706 12.5226 21.8363 12.7568 21.5484 12.7568H3.45104C3.1631 12.7568 2.92881 12.5226 2.92881 12.2346V7.32387C2.92881 7.03588 3.1631 6.80164 3.45104 6.80164H21.5484C21.8363 6.80164 22.0706 7.03588 22.0706 7.32387V7.77266C22.0706 8.03161 22.2805 8.24161 22.5395 8.24161C22.7985 8.24161 23.0085 8.03161 23.0085 7.77266V7.32387C23.0085 6.51876 22.3535 5.86372 21.5484 5.86372H21.2414C20.7648 4.79924 20.1035 3.83933 19.2715 3.00736C17.4626 1.19855 15.0577 0.202393 12.4998 0.202393C9.942 0.202393 7.53696 1.19855 5.72763 3.00736C4.89561 3.83938 4.23433 4.79929 3.75778 5.86372H3.45104C2.64593 5.86372 1.99089 6.51876 1.99089 7.32387V12.2346C1.99089 13.0397 2.64589 13.6947 3.45104 13.6947H3.75741C3.88995 13.9905 4.03739 14.2793 4.19916 14.5602L0.63186 18.1279C0.360381 18.3994 0.533473 18.8902 0.919752 18.9264L4.98931 19.3077L5.37057 23.3772C5.40644 23.7596 5.89383 23.9403 6.16906 23.6651L10.6559 19.1786C11.8703 19.4152 13.1299 19.4151 14.3444 19.1794L18.8305 23.6651C19.1024 23.937 19.5928 23.7633 19.629 23.3772L20.0103 19.3077L24.0799 18.9264C24.4621 18.8906 24.642 18.4022 24.3677 18.1279ZM6.39083 3.67065C8.02298 2.03892 10.1925 1.1403 12.4998 1.1403C14.8073 1.1403 16.9766 2.03892 18.6083 3.6706C19.2578 4.32011 19.7923 5.05557 20.203 5.86377H4.79614C5.20681 5.05557 5.74132 4.32011 6.39083 3.67065ZM6.21131 22.2965L5.88689 18.8333C5.87671 18.7245 5.82885 18.6227 5.75158 18.5454C5.67432 18.4681 5.57249 18.4203 5.4637 18.4101L2.00046 18.0857L4.71909 15.3667C5.36616 16.2671 6.16854 17.0527 7.09886 17.6891C7.86813 18.2158 8.71053 18.6269 9.59914 18.909L6.21131 22.2965ZM10.6003 18.2088C8.38047 17.7108 6.40766 16.3162 5.18702 14.3818C5.1858 14.3799 5.18434 14.3782 5.18308 14.3763C5.04387 14.1551 4.9148 13.9277 4.79628 13.6947H20.2029C20.0844 13.9278 19.9552 14.1553 19.8158 14.3766C18.5583 16.3017 16.6562 17.7044 14.3937 18.2101C13.1501 18.4881 11.8438 18.4875 10.6003 18.2088ZM19.5359 18.4101C19.4271 18.4203 19.3253 18.4681 19.248 18.5454C19.1708 18.6227 19.1229 18.7245 19.1127 18.8333L18.7883 22.2965L15.4016 18.9102C17.3557 18.2916 19.0829 17.028 20.2794 15.3659L22.9991 18.0857L19.5359 18.4101Z" fill="#750D59"/>
</g>
<defs>
<clipPath id="clip0_133_10383">
<rect width="24" height="24" fill="white" transform="translate(0.5)"/>
</clipPath>
</defs>
</svg>
