<svg width="8" height="12" viewBox="0 0 8 12" fill="none" xmlns="http://www.w3.org/2000/svg">
<path d="M2.47588 8.624C2.47588 8.24 2.51854 7.888 2.60388 7.568C2.69988 7.248 2.84388 6.96 3.03588 6.704C3.23854 6.43733 3.49988 6.20267 3.81988 6C4.01188 5.872 4.23054 5.73867 4.47588 5.6C4.73188 5.46133 4.97188 5.30133 5.19588 5.12C5.43054 4.928 5.62254 4.704 5.77188 4.448C5.92121 4.18133 5.99588 3.86667 5.99588 3.504C5.99588 3.09867 5.89988 2.76267 5.70788 2.496C5.52654 2.21867 5.28654 2.01067 4.98788 1.872C4.68921 1.73333 4.36921 1.664 4.02788 1.664C3.67588 1.664 3.34521 1.73333 3.03588 1.872C2.72654 2.01067 2.45454 2.19733 2.21988 2.432C1.99588 2.656 1.80921 2.90667 1.65988 3.184L0.715875 2.56C0.907875 2.12267 1.17454 1.74933 1.51588 1.44C1.86788 1.13067 2.26254 0.896 2.69988 0.735999C3.13721 0.575999 3.59054 0.495999 4.05988 0.495999C4.45454 0.495999 4.83854 0.559999 5.21188 0.688C5.59588 0.805333 5.93721 0.991999 6.23588 1.248C6.54521 1.504 6.79054 1.824 6.97188 2.208C7.15321 2.592 7.24388 3.04533 7.24388 3.568C7.24388 3.97333 7.19054 4.32 7.08388 4.608C6.97721 4.896 6.82788 5.14667 6.63588 5.36C6.45454 5.57333 6.24121 5.76 5.99588 5.92C5.75054 6.08 5.49454 6.23467 5.22788 6.384C4.97188 6.52267 4.72121 6.67733 4.47588 6.848C4.24121 7.01867 4.04388 7.24267 3.88388 7.52C3.73454 7.78667 3.65988 8.15467 3.65988 8.624H2.47588ZM2.50788 12V10.144H3.69188V12H2.50788Z" fill="#0AA5BA"/>
</svg>
