<svg width="23" height="23" viewBox="0 0 23 23" fill="none" xmlns="http://www.w3.org/2000/svg">
<path d="M19.1874 2.875H3.81334C3.42304 2.87531 3.04123 2.98889 2.71424 3.20197C2.38725 3.41505 2.12913 3.71846 1.97122 4.07538C1.81331 4.4323 1.76239 4.82738 1.82464 5.21268C1.8869 5.59797 2.05965 5.95691 2.32193 6.24594L8.98474 13.5736V20.4844C8.9848 20.6195 9.02293 20.7518 9.09475 20.8662C9.16658 20.9806 9.2692 21.0725 9.39084 21.1313C9.48805 21.1792 9.5951 21.2038 9.70349 21.2031C9.86685 21.203 10.0253 21.1472 10.1527 21.045L11.5004 19.9669L13.7465 18.17C13.8305 18.1027 13.8984 18.0174 13.945 17.9204C13.9917 17.8233 14.0159 17.717 14.016 17.6094V13.5736L20.6788 6.24594C20.9411 5.95691 21.1138 5.59797 21.1761 5.21268C21.2383 4.82738 21.1874 4.4323 21.0295 4.07538C20.8716 3.71846 20.6135 3.41505 20.2865 3.20197C19.9595 2.98889 19.5777 2.87531 19.1874 2.875Z" fill="#334E59"/>
</svg>
