<svg width="17" height="17" viewBox="0 0 17 17" fill="none" xmlns="http://www.w3.org/2000/svg">
<path d="M13.7034 7.78446L13.7027 7.78371L9.21554 3.29676C9.02427 3.10538 8.76998 3 8.49951 3C8.22902 3 7.97473 3.10532 7.78339 3.29668L3.2986 7.78135C3.29709 7.78285 3.29559 7.78444 3.29408 7.78597C2.90131 8.18098 2.90199 8.8219 3.29602 9.21592C3.47601 9.39603 3.71378 9.50033 3.96798 9.51125C3.9783 9.51226 3.98872 9.51275 3.9992 9.51275H4.17804V12.8149C4.17804 13.4683 4.70969 14 5.36329 14H7.11878C7.29671 14 7.44104 13.8557 7.44104 13.6777V11.0889C7.44104 10.7907 7.6836 10.5481 7.98178 10.5481H9.01722C9.31542 10.5481 9.55794 10.7907 9.55794 11.0889V13.6777C9.55794 13.8557 9.70221 14 9.88021 14H11.6357C12.2893 14 12.821 13.4683 12.821 12.8149V9.51277H12.9868C13.2572 9.51277 13.5115 9.40746 13.7029 9.21612C14.0974 8.82143 14.0975 8.17941 13.7034 7.78446Z" fill="#334E59" fill-opacity="0.5"/>
</svg>
