<svg width="32" height="52" viewBox="0 0 32 52" fill="none" xmlns="http://www.w3.org/2000/svg">
<g clip-path="url(#clip0_133_2829)">
<path d="M2.96323 29.7078C4.05526 29.7078 4.94273 28.8183 4.94273 27.72V3.01644C4.93972 1.91817 4.05226 1.02563 2.96022 1.02563C1.86818 1.02563 0.980713 1.91514 0.980713 3.01342L0.98673 27.717C0.98673 28.8152 1.87119 29.7078 2.96623 29.7078H2.96323Z" fill="white"/>
<path d="M2.95722 5.95427C1.32368 5.95427 0 4.62 0 2.97411C0 1.33124 1.32669 0 2.96023 0C4.59979 0 5.92347 1.33426 5.92047 2.98016C5.92047 4.62303 4.59077 5.95729 2.95722 5.95729V5.95427Z" fill="white"/>
<path d="M2.96014 4.15107C2.31635 4.15107 1.7959 3.62463 1.7959 2.97716C1.7959 2.32969 2.31935 1.80627 2.96014 1.80627C3.60393 1.80627 4.12738 2.33272 4.12738 2.98019C4.12738 3.62765 3.60393 4.1541 2.96014 4.15107Z" fill="white"/>
<path d="M4.93984 5.1767V27.72C4.94285 28.8183 4.05839 29.7108 2.96334 29.7078C2.88813 29.7078 2.81593 29.6927 2.74072 29.6866L2.88813 5.94821C2.9122 5.94821 2.93326 5.95426 2.95733 5.95426C3.72145 5.95426 4.41337 5.65473 4.93984 5.1767Z" fill="white"/>
<path d="M5.92062 2.98016C5.92062 3.85454 5.53855 4.63211 4.93989 5.1767C4.41343 5.65474 3.7215 5.95729 2.95738 5.95427C2.93331 5.95427 2.91225 5.94822 2.88818 5.94822L2.90022 4.14499C2.92128 4.14499 2.93933 4.15104 2.95738 4.15104C3.60117 4.15104 4.12462 3.62763 4.12462 2.98016C4.12462 2.33269 3.60417 1.80625 2.95738 1.80625C2.94233 1.80625 2.92729 1.80927 2.91225 1.80927L2.92729 0.00302554C2.92729 0.00302554 2.94835 0 2.96038 0C4.59994 0 5.92363 1.33426 5.92062 2.98016Z" fill="white"/>
<path d="M4.12748 2.97713C4.12748 3.62459 3.60403 4.15104 2.96024 4.14801C2.93918 4.14801 2.92113 4.14196 2.90308 4.14196L2.91812 1.80624C2.93316 1.80624 2.9482 1.80019 2.96324 1.80322C3.60703 1.80322 4.13049 2.32966 4.13049 2.97713H4.12748Z" fill="white"/>
<path d="M1.42905 27.8471C1.2666 28.6942 1.81713 29.5142 2.65947 29.6775L13.5528 31.7984C14.3951 31.9618 15.2104 31.4081 15.3758 30.561C15.5383 29.7138 14.9878 28.8939 14.1424 28.7275L3.24911 26.6096C2.40376 26.4463 1.5885 26.9999 1.42604 27.8471H1.42905Z" fill="white"/>
<path d="M13.0413 30.1072C13.1315 29.6412 13.5798 29.3357 14.0431 29.4264C14.5064 29.5172 14.8102 29.968 14.72 30.4339C14.6297 30.8999 14.1815 31.2024 13.7182 31.1147C13.2549 31.0269 12.954 30.5761 13.0413 30.1102V30.1072Z" fill="white"/>
<path d="M2.20523 27.9983C2.29548 27.5324 2.74373 27.2268 3.20702 27.3176C3.67031 27.4084 3.97114 27.8592 3.8839 28.3221C3.79365 28.788 3.3454 29.0936 2.88211 29.0028C2.41883 28.9151 2.11799 28.4643 2.20523 27.9983Z" fill="white"/>
<path d="M3.24914 26.6096L14.1424 28.7275C14.9788 28.8909 15.5263 29.6987 15.3759 30.5398L14.717 30.4037C14.7892 29.9498 14.4944 29.5142 14.0402 29.4264C13.5949 29.3387 13.1677 29.6231 13.0594 30.0618L3.8809 28.1708C3.88391 27.7654 3.61616 27.3993 3.20703 27.3176C2.80391 27.239 2.42485 27.4689 2.27143 27.838L1.48022 27.6746C1.71488 26.9273 2.46697 26.4553 3.25215 26.6066L3.24914 26.6096Z" fill="white"/>
<path d="M14.0402 29.4264C14.4944 29.5142 14.7863 29.9498 14.7171 30.4037L13.0594 30.0618C13.1708 29.6231 13.5949 29.3387 14.0402 29.4264Z" fill="white"/>
<path d="M3.20709 27.3206C3.61923 27.4023 3.88698 27.7684 3.88096 28.1738L2.27148 27.841C2.42491 27.4719 2.80397 27.242 3.20709 27.3206Z" fill="white"/>
<path d="M29.5151 30.4733C27.5356 25.9501 19.8582 24.9728 12.3674 28.2858C4.87653 31.6048 0.406099 37.9585 2.3856 42.4816C2.72555 43.2592 3.23697 43.9278 3.88377 44.4936C3.94695 44.7115 4.01915 44.9263 4.11241 45.135C6.02272 49.5009 13.4323 50.4449 20.6614 47.2438C27.8905 44.0428 32.2045 37.9131 30.2942 33.5472C30.204 33.3384 30.0957 33.1388 29.9783 32.9451C30.0024 32.0859 29.858 31.2538 29.5151 30.4763V30.4733Z" fill="white"/>
<path d="M30.5168 32.7636C28.5373 28.2404 20.8599 27.2601 13.3691 30.5761C5.87824 33.8921 1.40781 40.2457 3.38731 44.7689C3.72726 45.5465 4.23868 46.2151 4.88548 46.7809C4.94866 46.9987 5.02086 47.2136 5.11412 47.4223C7.02443 51.7882 14.434 52.7322 21.6631 49.5311C28.8922 46.3301 33.2062 40.2004 31.2959 35.8345C31.2027 35.6257 31.0974 35.426 30.9801 35.2324C31.0041 34.3732 30.8567 33.5411 30.5168 32.7636Z" fill="white"/>
<path d="M30.7694 33.3354C28.7899 28.8122 21.1126 27.8319 13.6218 31.1479C6.13093 34.4639 1.66049 40.8176 3.64 45.3408C3.97994 46.1183 4.49137 46.787 5.13817 47.3527C5.20134 47.5706 5.27354 47.7854 5.3668 47.9942C7.27711 52.36 14.6867 53.304 21.9158 50.103C29.1449 46.9019 33.4589 40.7722 31.5486 36.4063C31.4584 36.1976 31.3501 35.9979 31.2327 35.8042C31.2568 34.945 31.1094 34.113 30.7694 33.3354Z" fill="white"/>
<path d="M31.2959 35.8345C29.3856 31.4687 21.976 30.5247 14.7469 33.7257C7.51779 36.9268 3.20379 43.0565 5.1141 47.4224C7.02441 51.7882 14.434 52.7322 21.6631 49.5312C28.8922 46.3301 33.2062 40.2004 31.2959 35.8345Z" fill="white"/>
<path d="M17.3914 39.7708C15.3578 40.6724 14.1304 42.3727 14.6538 43.5709C15.1773 44.769 17.253 45.008 19.2867 44.1094C21.3234 43.2078 22.5478 41.5074 22.0243 40.3093C21.5009 39.1142 19.4281 38.8722 17.3914 39.7708Z" fill="#821565"/>
<path d="M19.6207 44.8627C17.6833 45.719 16.5161 47.3407 17.0155 48.4813C17.5149 49.6219 19.4914 49.8488 21.4287 48.9926C23.3691 48.1334 24.5334 46.5147 24.034 45.3741C23.5346 44.2334 21.5611 44.0035 19.6207 44.8627Z" fill="#821565"/>
<path d="M26.1307 37.7437C24.5784 38.4305 23.3901 39.6528 23.2818 40.7934C23.1524 42.2094 24.7438 42.9658 26.8437 42.4786C27.2528 42.3818 27.6529 42.2487 28.032 42.0793C29.5843 41.3925 30.7756 40.1702 30.8809 39.0295C31.0103 37.6136 29.4158 36.8602 27.316 37.3473C26.9069 37.4411 26.5067 37.5773 26.1307 37.7467V37.7437Z" fill="#821565"/>
<path d="M20.4389 33.1327C19.2416 33.6622 18.2067 34.5094 17.7164 35.4594C16.9041 37.0327 17.9119 38.2852 19.9636 38.261C20.7789 38.252 21.6363 38.0402 22.4245 37.6922C23.6218 37.1628 24.6597 36.3126 25.15 35.3656C25.9623 33.7923 24.9545 32.5397 22.9028 32.5639C22.0875 32.576 21.2271 32.7848 20.4389 33.1358V33.1327Z" fill="#821565"/>
<path d="M10.4662 37.544C9.67799 37.8919 8.94395 38.3881 8.38439 38.9841C6.97647 40.4878 7.21714 42.0823 8.91988 42.5422C9.94573 42.8205 11.2694 42.6239 12.4637 42.0944C13.2519 41.7465 13.986 41.2533 14.5425 40.6542C15.9504 39.1505 15.7098 37.5561 14.007 37.0962C12.9812 36.8178 11.6605 37.0145 10.4632 37.544H10.4662Z" fill="#821565"/>
<path d="M9.99983 44.881C9.62378 45.0474 9.25375 45.2531 8.90779 45.4921C7.13286 46.7175 6.6094 48.4118 7.73754 49.274C8.64305 49.9669 10.3428 49.9094 11.8951 49.2226C12.2742 49.0562 12.6412 48.8505 12.9871 48.6114C14.7621 47.3861 15.2855 45.6918 14.1574 44.8325C13.2489 44.1397 11.5491 44.1972 9.99682 44.884L9.99983 44.881Z" fill="#821565"/>
</g>
<defs>
<clipPath id="clip0_133_2829">
<rect width="32" height="52" fill="white"/>
</clipPath>
</defs>
</svg>
