<svg width="65" height="65" viewBox="0 0 65 65" fill="none" xmlns="http://www.w3.org/2000/svg">
<path d="M6.09375 8.125H20.3125V10.1562H14.2188C13.68 10.1562 13.1634 10.3703 12.7824 10.7512C12.4015 11.1321 12.1875 11.6488 12.1875 12.1875V13.7394L10.3695 17.3733C10.2147 17.683 10.1417 18.0272 10.1574 18.3732C10.1731 18.7191 10.2769 19.0553 10.459 19.3497C10.6412 19.6442 10.8956 19.8873 11.1981 20.0558C11.5007 20.2243 11.8412 20.3127 12.1875 20.3125H32.5C32.8463 20.3127 33.1869 20.2243 33.4894 20.0558C33.7919 19.8873 34.0463 19.6442 34.2285 19.3497C34.4106 19.0553 34.5144 18.7191 34.5301 18.3732C34.5458 18.0272 34.4728 17.683 34.318 17.3733L32.5 13.7373V12.1875C32.5 11.6488 32.286 11.1321 31.9051 10.7512C31.5241 10.3703 31.0075 10.1562 30.4688 10.1562H24.375V6.09375C24.375 5.55503 24.161 5.03837 23.7801 4.65744C23.3991 4.27651 22.8825 4.0625 22.3438 4.0625H6.09375C5.55503 4.0625 5.03837 4.27651 4.65744 4.65744C4.27651 5.03837 4.0625 5.55503 4.0625 6.09375C4.0625 6.63247 4.27651 7.14913 4.65744 7.53006C5.03837 7.91099 5.55503 8.125 6.09375 8.125ZM58.9062 30.4688C59.445 30.4688 59.9616 30.2547 60.3426 29.8738C60.7235 29.4929 60.9375 28.9762 60.9375 28.4375C60.9375 27.8988 60.7235 27.3821 60.3426 27.0012C59.9616 26.6203 59.445 26.4062 58.9062 26.4062H48.75C48.2113 26.4062 47.6946 26.6203 47.3137 27.0012C46.9328 27.3821 46.7188 27.8988 46.7188 28.4375C46.7188 28.9762 46.9328 29.4929 47.3137 29.8738C47.6946 30.2547 48.2113 30.4688 48.75 30.4688H44.6875C45.2262 30.4688 45.7429 30.2547 46.1238 29.8738C46.5047 29.4929 46.7188 28.9762 46.7188 28.4375C46.7188 27.8988 46.5047 27.3821 46.1238 27.0012C45.7429 26.6203 45.2262 26.4062 44.6875 26.4062H34.5312C33.9925 26.4062 33.4759 26.6203 33.0949 27.0012C32.714 27.3821 32.5 27.8988 32.5 28.4375C32.5 28.9762 32.714 29.4929 33.0949 29.8738C33.4759 30.2547 33.9925 30.4688 34.5312 30.4688H30.4688C31.0075 30.4688 31.5241 30.2547 31.9051 29.8738C32.286 29.4929 32.5 28.9762 32.5 28.4375C32.5 27.8988 32.286 27.3821 31.9051 27.0012C31.5241 26.6203 31.0075 26.4062 30.4688 26.4062H20.3125C19.7738 26.4062 19.2571 26.6203 18.8762 27.0012C18.4953 27.3821 18.2813 27.8988 18.2813 28.4375C18.2813 28.9762 18.4953 29.4929 18.8762 29.8738C19.2571 30.2547 19.7738 30.4688 20.3125 30.4688H16.25C16.7887 30.4688 17.3054 30.2547 17.6863 29.8738C18.0672 29.4929 18.2813 28.9762 18.2813 28.4375C18.2813 27.8988 18.0672 27.3821 17.6863 27.0012C17.3054 26.6203 16.7887 26.4062 16.25 26.4062H6.09375C5.55503 26.4062 5.03837 26.6203 4.65744 27.0012C4.27651 27.3821 4.0625 27.8988 4.0625 28.4375C4.0625 28.9762 4.27651 29.4929 4.65744 29.8738C5.03837 30.2547 5.55503 30.4688 6.09375 30.4688C5.55503 30.4688 5.03837 30.6828 4.65744 31.0637C4.27651 31.4446 4.0625 31.9613 4.0625 32.5V34.5312C4.06212 34.9937 4.21953 35.4424 4.50872 35.8032C4.79791 36.1641 5.20156 36.4154 5.65297 36.5158L23.9342 40.5783C24.0784 40.6087 24.2267 40.625 24.375 40.625H34.5312V42.6562H32.5C31.9613 42.6562 31.4446 42.8703 31.0637 43.2512C30.6828 43.6321 30.4688 44.1488 30.4688 44.6875V52.8125H20.3125C19.7738 52.8125 19.2571 53.0265 18.8762 53.4074C18.4953 53.7884 18.2813 54.305 18.2813 54.8438V58.9062C18.2813 59.445 18.4953 59.9616 18.8762 60.3426C19.2571 60.7235 19.7738 60.9375 20.3125 60.9375H50.7812C51.32 60.9375 51.8366 60.7235 52.2176 60.3426C52.5985 59.9616 52.8125 59.445 52.8125 58.9062V54.8438C52.8125 54.305 52.5985 53.7884 52.2176 53.4074C51.8366 53.0265 51.32 52.8125 50.7812 52.8125H46.7188V44.6875C46.7188 44.1488 46.5047 43.6321 46.1238 43.2512C45.7429 42.8703 45.2262 42.6562 44.6875 42.6562H42.6562V40.625H46.7188C46.937 40.6245 47.1537 40.5888 47.3606 40.5194L59.5481 36.4569C59.9526 36.3225 60.3045 36.0641 60.5539 35.7185C60.8033 35.3729 60.9375 34.9575 60.9375 34.5312V32.5C60.9375 31.9613 60.7235 31.4446 60.3426 31.0637C59.9616 30.6828 59.445 30.4688 58.9062 30.4688Z" fill="white"/>
</svg>
