<svg width="60" height="60" viewBox="0 0 60 60" fill="none" xmlns="http://www.w3.org/2000/svg">
<path d="M13.6399 17.1418C15.0108 19.3436 14.8818 22.5909 12.969 23.7818C11.0545 24.9709 8.08176 23.6545 6.71267 21.4527C5.34176 19.2527 6.09448 17.0018 8.00721 15.8091C9.91994 14.6163 12.269 14.94 13.6399 17.1418ZM26.7508 30.6145L23.5963 27.9454C18.529 23.6582 14.0745 24.8218 11.3072 26.4527C12.0872 27.3036 12.7127 28.2709 13.269 29.2654C14.683 31.7955 16.0825 34.3338 17.4672 36.88H22.9472L26.7508 30.6145Z" fill="white"/>
<path d="M59.0909 35.6435C59.0909 33.1653 58.1073 31.8944 54.9782 31.8944H28.2636L24.0473 38.8362H16.3018C14.7408 35.9534 13.1614 33.0806 11.5636 30.218C10.0963 27.5962 8.35089 25.5362 4.23089 25.5362C1.29816 25.5362 0.910889 26.8853 0.910889 29.8162V46.7453C0.910889 48.478 2.31271 49.878 4.0418 49.878H6.96907V55.4671H11.9727V49.878H54.0909V55.4671H59.0909V35.6435Z" fill="white"/>
<path d="M47.3963 4.53253H33.9799C32.6654 4.53253 31.5963 5.60162 31.5963 6.91799V20.3307C31.5963 21.6489 32.6654 22.7162 33.9799 22.7162H47.3963C47.7096 22.7164 48.0198 22.6549 48.3092 22.535C48.5986 22.4152 48.8616 22.2395 49.083 22.0179C49.3044 21.7963 49.4799 21.5332 49.5995 21.2437C49.7191 20.9542 49.7804 20.644 49.7799 20.3307V6.91799C49.7799 5.60162 48.7145 4.53253 47.3963 4.53253ZM46.2145 15.6853H42.7527V19.1434H38.6254V15.6853H35.1636V11.5616H38.6254V8.10344H42.7527V11.5616H46.2145V15.6853Z" fill="white"/>
</svg>
