<svg width="52" height="52" viewBox="0 0 52 52" fill="none" xmlns="http://www.w3.org/2000/svg">
<g clip-path="url(#clip0_133_2899)">
<path d="M26 41.2945C30.2233 41.2945 33.647 37.8708 33.647 33.6475C33.647 29.4241 30.2233 26.0004 26 26.0004C21.7766 26.0004 18.3529 29.4241 18.3529 33.6475C18.3529 37.8708 21.7766 41.2945 26 41.2945Z" fill="white"/>
<path d="M42.5553 24.475C42.1569 24.4875 41.7989 24.2973 41.5945 23.9683C38.3191 18.7013 32.5064 15.2945 26 15.2945C19.4939 15.2945 13.6811 18.701 10.4056 23.9683C10.2011 24.2974 9.84095 24.4875 9.44483 24.475C4.29133 24.3224 0 28.4754 0 33.6475C0 38.8202 4.29489 42.9754 9.44473 42.82C9.84289 42.8099 10.2011 42.9976 10.4056 43.3265C12.0233 45.9281 14.2851 48.1025 16.9466 49.6149C22.539 52.7927 29.4533 52.7971 35.0534 49.6149C37.7149 48.1025 39.9768 45.9281 41.5945 43.3265C41.7989 42.9976 42.1592 42.8095 42.5553 42.82C47.7051 42.9753 52 38.8203 52 33.6475C52 28.4732 47.707 24.3224 42.5553 24.475ZM10.7059 35.1769H7.64706V32.1181H10.7059V35.1769ZM26 44.3534C20.0968 44.3534 15.2941 39.5508 15.2941 33.6475C15.2941 27.7442 20.0968 22.9416 26 22.9416C31.9032 22.9416 36.7059 27.7442 36.7059 33.6475C36.7059 39.5508 31.9032 44.3534 26 44.3534ZM44.3529 35.1769H41.2941V32.1181H44.3529V35.1769ZM44.3529 15.2945C48.5695 15.2945 52 11.8641 52 7.64749C52 3.4309 48.5695 0.000427246 44.3529 0.000427246C40.1364 0.000427246 36.7059 3.4309 36.7059 7.64749C36.7059 11.8641 40.1364 15.2945 44.3529 15.2945ZM44.3529 3.05925C46.883 3.05925 48.9412 5.11753 48.9412 7.64749C48.9412 10.1774 46.883 12.2357 44.3529 12.2357C41.823 12.2357 39.7647 10.1774 39.7647 7.64749C39.7647 5.11764 41.823 3.05925 44.3529 3.05925ZM6.11765 19.8828H9.17647V9.1769H12.2353V0.000427246H3.05882V9.1769H6.11765V19.8828Z" fill="white"/>
</g>
<defs>
<clipPath id="clip0_133_2899">
<rect width="52" height="52" fill="white"/>
</clipPath>
</defs>
</svg>
