<svg width="154" height="37" viewBox="0 0 154 37" fill="none" xmlns="http://www.w3.org/2000/svg">
<path d="M0.728516 18.0117H147.523" stroke="white" stroke-width="2.2949"/>
<mask id="mask0_133_11147" style="mask-type:luminance" maskUnits="userSpaceOnUse" x="0" y="0" width="37" height="37">
<path d="M18.0115 36.0231C27.959 36.0231 36.0231 27.959 36.0231 18.0115C36.0231 8.06404 27.959 0 18.0115 0C8.06404 0 0 8.06404 0 18.0115C0 27.959 8.06404 36.0231 18.0115 36.0231Z" fill="white"/>
</mask>
<g mask="url(#mask0_133_11147)">
<path d="M18.0115 36.0231C27.959 36.0231 36.0231 27.959 36.0231 18.0115C36.0231 8.06404 27.959 0 18.0115 0C8.06404 0 0 8.06404 0 18.0115C0 27.959 8.06404 36.0231 18.0115 36.0231Z" stroke="white" stroke-width="2.84211"/>
</g>
<mask id="mask1_133_11147" style="mask-type:luminance" maskUnits="userSpaceOnUse" x="25" y="8" width="20" height="20">
<path d="M34.8542 27.4428C40.0636 27.4428 44.2866 23.2198 44.2866 18.0105C44.2866 12.8011 40.0636 8.57812 34.8542 8.57812C29.6449 8.57812 25.4219 12.8011 25.4219 18.0105C25.4219 23.2198 29.6449 27.4428 34.8542 27.4428Z" fill="white"/>
</mask>
<g mask="url(#mask1_133_11147)">
<path d="M34.8542 27.4428C40.0636 27.4428 44.2866 23.2198 44.2866 18.0105C44.2866 12.8011 40.0636 8.57812 34.8542 8.57812C29.6449 8.57812 25.4219 12.8011 25.4219 18.0105C25.4219 23.2198 29.6449 27.4428 34.8542 27.4428Z" stroke="white" stroke-width="2.84211"/>
</g>
<mask id="mask2_133_11147" style="mask-type:luminance" maskUnits="userSpaceOnUse" x="146" y="14" width="8" height="8">
<path d="M150.444 21.5672C152.408 21.5672 154 19.9753 154 18.0116C154 16.0479 152.408 14.4561 150.444 14.4561C148.481 14.4561 146.889 16.0479 146.889 18.0116C146.889 19.9753 148.481 21.5672 150.444 21.5672Z" fill="white"/>
</mask>
<g mask="url(#mask2_133_11147)">
<path d="M150.444 21.5672C152.408 21.5672 154 19.9753 154 18.0116C154 16.0479 152.408 14.4561 150.444 14.4561C148.481 14.4561 146.889 16.0479 146.889 18.0116C146.889 19.9753 148.481 21.5672 150.444 21.5672Z" fill="white" stroke="white" stroke-width="2.84211"/>
</g>
<path d="M49.5454 10.1178C49.0675 10.1178 48.6388 9.99776 48.2593 9.75761C47.8775 9.51745 47.5773 9.19325 47.3588 8.78498C47.1378 8.37432 47.0273 7.90962 47.0273 7.39089C47.0273 6.87456 47.1474 6.40986 47.3876 5.9968C47.6277 5.58373 47.9519 5.25712 48.3602 5.01697C48.7709 4.77682 49.232 4.65674 49.7435 4.65674C50.255 4.65674 50.7137 4.77682 51.1196 5.01697C51.5254 5.25712 51.8484 5.58373 52.0886 5.9968C52.3287 6.40986 52.4488 6.87456 52.4488 7.39089H52.0634C52.0634 7.90962 51.9541 8.37432 51.7356 8.78498C51.5146 9.19325 51.2144 9.51745 50.835 9.75761C50.4555 9.99776 50.0257 10.1178 49.5454 10.1178ZM49.7435 9.23167C50.0773 9.23167 50.3751 9.15122 50.6369 8.99032C50.8986 8.82941 51.1052 8.60967 51.2565 8.33109C51.4078 8.05251 51.4834 7.73911 51.4834 7.39089C51.4834 7.03786 51.4078 6.72206 51.2565 6.44348C51.1052 6.1649 50.8986 5.94516 50.6369 5.78426C50.3751 5.62336 50.0773 5.54291 49.7435 5.54291C49.4145 5.54291 49.1179 5.62336 48.8537 5.78426C48.5871 5.94516 48.377 6.1649 48.2233 6.44348C48.0696 6.72206 47.9928 7.03786 47.9928 7.39089C47.9928 7.73911 48.0696 8.05251 48.2233 8.33109C48.377 8.60967 48.5871 8.82941 48.8537 8.99032C49.1179 9.15122 49.4145 9.23167 49.7435 9.23167ZM51.9445 10.0854C51.8004 10.0854 51.6815 10.0386 51.5879 9.94493C51.4918 9.84887 51.4438 9.72879 51.4438 9.5847V8.07893L51.6311 7.03786L52.4488 7.39089V9.5847C52.4488 9.72879 52.4008 9.84887 52.3047 9.94493C52.2087 10.0386 52.0886 10.0854 51.9445 10.0854Z" fill="white"/>
<path d="M58.9478 10.1178C58.4891 10.1178 58.0653 10.047 57.6762 9.9053C57.2848 9.76361 56.981 9.5847 56.7648 9.36856C56.6664 9.26289 56.6255 9.14281 56.6423 9.00833C56.6592 8.87384 56.7228 8.76457 56.8333 8.68052C56.9654 8.57485 57.095 8.53042 57.2223 8.54723C57.3496 8.56404 57.4589 8.62168 57.5501 8.72014C57.663 8.84502 57.8419 8.9615 58.0869 9.06957C58.3342 9.17764 58.608 9.23167 58.9082 9.23167C59.29 9.23167 59.5806 9.16923 59.78 9.04435C59.9793 8.91947 60.0826 8.75857 60.0898 8.56164C60.097 8.36471 60.0033 8.19421 59.8088 8.05011C59.6143 7.90602 59.2624 7.78835 58.7533 7.69709C58.0905 7.565 57.6102 7.36808 57.3124 7.10631C57.0122 6.84454 56.8621 6.52393 56.8621 6.14449C56.8621 5.80828 56.9606 5.5309 57.1575 5.31236C57.3544 5.09142 57.6066 4.92691 57.914 4.81884C58.2238 4.71077 58.5456 4.65674 58.8794 4.65674C59.3117 4.65674 59.6947 4.72638 60.0285 4.86567C60.3647 5.00256 60.6313 5.19228 60.8282 5.43484C60.9195 5.5405 60.9615 5.64977 60.9543 5.76265C60.9471 5.87792 60.8919 5.97518 60.7886 6.05443C60.6829 6.12648 60.5581 6.14929 60.414 6.12288C60.2699 6.09646 60.1486 6.03762 60.0501 5.94636C59.8868 5.78786 59.7091 5.67979 59.517 5.62216C59.3273 5.56212 59.1087 5.5321 58.8614 5.5321C58.5708 5.5321 58.3258 5.58133 58.1265 5.67979C57.9272 5.77826 57.8275 5.92235 57.8275 6.11207C57.8275 6.23215 57.8587 6.33902 57.9212 6.43268C57.9836 6.52874 58.1061 6.61399 58.2886 6.68844C58.4735 6.76529 58.7425 6.83974 59.0955 6.91178C59.5878 7.00784 59.9769 7.13152 60.2627 7.28282C60.5461 7.43412 60.7502 7.60943 60.8751 7.80876C60.9999 8.01049 61.0624 8.24224 61.0624 8.504C61.0624 8.8042 60.9819 9.07557 60.821 9.31813C60.6601 9.56068 60.4248 9.754 60.115 9.8981C59.8028 10.0446 59.4137 10.1178 58.9478 10.1178Z" fill="white"/>
<path d="M67.5137 10.0783H67.3371C67.0081 10.0783 66.7127 9.99424 66.451 9.82614C66.1892 9.65803 65.9827 9.42988 65.8314 9.1417C65.6801 8.85351 65.6044 8.5293 65.6044 8.16907V3.47887C65.6044 3.33478 65.6513 3.2159 65.7449 3.12224C65.8362 3.03098 65.9539 2.98535 66.098 2.98535C66.242 2.98535 66.3597 3.03098 66.451 3.12224C66.5422 3.2159 66.5879 3.33478 66.5879 3.47887V8.16907C66.5879 8.43084 66.6599 8.65058 66.804 8.8283C66.9481 9.00601 67.1258 9.09487 67.3371 9.09487H67.6722C67.7898 9.09487 67.8895 9.1405 67.9712 9.23176C68.0528 9.32301 68.0936 9.44069 68.0936 9.58478C68.0936 9.72887 68.0396 9.84655 67.9315 9.93781C67.8235 10.0315 67.6842 10.0783 67.5137 10.0783ZM67.4236 5.74112H65.1542C65.0149 5.74112 64.9032 5.70149 64.8191 5.62224C64.7327 5.54299 64.6895 5.44453 64.6895 5.32685C64.6895 5.19477 64.7327 5.0903 64.8191 5.01345C64.9032 4.9342 65.0149 4.89458 65.1542 4.89458H67.4236C67.5629 4.89458 67.6746 4.9342 67.7586 5.01345C67.8451 5.0903 67.8883 5.19477 67.8883 5.32685C67.8883 5.44453 67.8451 5.54299 67.7586 5.62224C67.6746 5.70149 67.5629 5.74112 67.4236 5.74112Z" fill="white"/>
<path d="M73.3575 6.71311H72.8531C72.8531 6.31926 72.9504 5.96623 73.1449 5.65403C73.337 5.34424 73.5976 5.09688 73.9266 4.91196C74.2532 4.72944 74.6135 4.63818 75.0073 4.63818C75.4012 4.63818 75.6954 4.70182 75.8899 4.82911C76.082 4.95639 76.1552 5.10889 76.1096 5.2866C76.0904 5.37786 76.0532 5.4487 75.9979 5.49914C75.9403 5.54717 75.8755 5.57839 75.8034 5.5928C75.7314 5.6048 75.6533 5.6012 75.5693 5.58199C75.149 5.49793 74.772 5.49193 74.4381 5.56398C74.1043 5.63602 73.8402 5.76931 73.6456 5.96383C73.4535 6.16076 73.3575 6.41052 73.3575 6.71311ZM72.8639 10.0777C72.7078 10.0777 72.5866 10.0356 72.5001 9.95159C72.4161 9.86994 72.374 9.74746 72.374 9.58415V5.18934C72.374 5.03084 72.4161 4.90956 72.5001 4.8255C72.5866 4.73905 72.7078 4.69582 72.8639 4.69582C73.0272 4.69582 73.1497 4.73665 73.2314 4.8183C73.3154 4.90235 73.3575 5.02603 73.3575 5.18934V9.58415C73.3575 9.74266 73.3154 9.86393 73.2314 9.94799C73.1497 10.0344 73.0272 10.0777 72.8639 10.0777Z" fill="white"/>
<path d="M82.2438 10.1178C81.713 10.1178 81.2447 10.0014 80.8389 9.76841C80.433 9.53546 80.1136 9.21366 79.8807 8.803C79.6477 8.39233 79.5312 7.92163 79.5312 7.39089C79.5312 6.85295 79.6477 6.37984 79.8807 5.97158C80.1136 5.56092 80.433 5.23911 80.8389 5.00616C81.2447 4.77321 81.713 4.65674 82.2438 4.65674C82.7697 4.65674 83.2356 4.77321 83.6415 5.00616C84.0473 5.23911 84.3667 5.56092 84.5997 5.97158C84.8326 6.37984 84.9491 6.85295 84.9491 7.39089C84.9491 7.92163 84.835 8.39233 84.6069 8.803C84.3764 9.21366 84.0582 9.53546 83.6523 9.76841C83.2464 10.0014 82.7769 10.1178 82.2438 10.1178ZM82.2438 9.23167C82.5848 9.23167 82.8874 9.15242 83.1516 8.99392C83.4133 8.83782 83.6175 8.62168 83.764 8.3455C83.9129 8.06933 83.9873 7.75112 83.9873 7.39089C83.9873 7.03066 83.9129 6.71125 83.764 6.43268C83.6175 6.1541 83.4133 5.93676 83.1516 5.78066C82.8874 5.62216 82.5848 5.54291 82.2438 5.54291C81.9052 5.54291 81.6038 5.62216 81.3396 5.78066C81.0778 5.93676 80.8713 6.1541 80.72 6.43268C80.5711 6.71125 80.4967 7.03066 80.4967 7.39089C80.4967 7.75112 80.5711 8.06933 80.72 8.3455C80.8713 8.62168 81.0778 8.83782 81.3396 8.99392C81.6038 9.15242 81.9052 9.23167 82.2438 9.23167Z" fill="white"/>
<path d="M96.5556 10.0858C96.4116 10.0858 96.2915 10.039 96.1954 9.9453C96.0994 9.84923 96.0513 9.72916 96.0513 9.58506V6.77166C96.0513 6.3586 95.9505 6.0524 95.7487 5.85307C95.5446 5.65375 95.2792 5.55408 94.9526 5.55408C94.6116 5.55408 94.3306 5.67176 94.1097 5.90711C93.8911 6.14246 93.7819 6.44385 93.7819 6.81129H92.9641C92.9641 6.38622 93.0566 6.01157 93.2415 5.68737C93.424 5.36316 93.681 5.1086 94.0124 4.92368C94.3438 4.74116 94.7221 4.6499 95.1471 4.6499C95.5218 4.6499 95.8532 4.73155 96.1414 4.89486C96.4296 5.05816 96.6541 5.29952 96.815 5.61892C96.9759 5.93593 97.0564 6.32017 97.0564 6.77166V9.58506C97.0564 9.72916 97.0107 9.84923 96.9195 9.9453C96.8258 10.039 96.7045 10.0858 96.5556 10.0858ZM89.9958 10.0858C89.8517 10.0858 89.7317 10.039 89.6356 9.9453C89.5419 9.84923 89.4951 9.72916 89.4951 9.58506V5.20826C89.4951 5.05696 89.5419 4.93569 89.6356 4.84443C89.7317 4.75317 89.8517 4.70754 89.9958 4.70754C90.1471 4.70754 90.2684 4.75317 90.3597 4.84443C90.4509 4.93569 90.4966 5.05696 90.4966 5.20826V9.58506C90.4966 9.72916 90.4509 9.84923 90.3597 9.9453C90.2684 10.039 90.1471 10.0858 89.9958 10.0858ZM93.2811 10.0858C93.1346 10.0858 93.0146 10.039 92.9209 9.9453C92.8249 9.84923 92.7768 9.72916 92.7768 9.58506V6.77166C92.7768 6.3586 92.676 6.0524 92.4742 5.85307C92.2701 5.65375 92.0047 5.55408 91.6781 5.55408C91.3371 5.55408 91.0549 5.67176 90.8316 5.90711C90.6082 6.14246 90.4966 6.44385 90.4966 6.81129H89.877C89.877 6.38622 89.9622 6.01157 90.1327 5.68737C90.3032 5.36316 90.5398 5.1086 90.8424 4.92368C91.1426 4.74116 91.486 4.6499 91.8726 4.6499C92.2473 4.6499 92.5787 4.73155 92.8669 4.89486C93.1551 5.05816 93.3796 5.29952 93.5405 5.61892C93.7014 5.93593 93.7819 6.32017 93.7819 6.77166V9.58506C93.7819 9.72916 93.7362 9.84923 93.645 9.9453C93.5513 10.039 93.43 10.0858 93.2811 10.0858Z" fill="white"/>
<path d="M104.294 10.1178C103.751 10.1178 103.267 10.0014 102.842 9.76841C102.419 9.53546 102.089 9.21366 101.851 8.803C101.611 8.39233 101.491 7.92163 101.491 7.39089C101.491 6.85295 101.604 6.37984 101.83 5.97158C102.056 5.56092 102.369 5.23911 102.77 5.00616C103.171 4.77321 103.63 4.65674 104.146 4.65674C104.658 4.65674 105.097 4.77081 105.465 4.99896C105.832 5.2247 106.112 5.5357 106.304 5.93196C106.498 6.32821 106.596 6.7857 106.596 7.30444C106.596 7.42932 106.552 7.53258 106.466 7.61423C106.382 7.69589 106.274 7.73671 106.142 7.73671H102.179V6.94781H106.113L105.71 7.22518C105.705 6.89617 105.64 6.60319 105.515 6.34622C105.39 6.08685 105.212 5.88152 104.982 5.73023C104.754 5.57893 104.475 5.50328 104.146 5.50328C103.774 5.50328 103.454 5.58493 103.188 5.74824C102.921 5.91394 102.72 6.13849 102.583 6.42187C102.446 6.70765 102.377 7.03066 102.377 7.39089C102.377 7.75112 102.459 8.07293 102.622 8.35631C102.786 8.63729 103.011 8.85943 103.3 9.02274C103.59 9.18844 103.922 9.2713 104.294 9.2713C104.498 9.2713 104.707 9.23287 104.921 9.15602C105.132 9.08157 105.304 8.99512 105.436 8.89666C105.534 8.82461 105.641 8.78738 105.756 8.78498C105.869 8.78018 105.969 8.8138 106.055 8.88585C106.166 8.98431 106.225 9.09238 106.232 9.21006C106.239 9.33013 106.186 9.4322 106.073 9.51625C105.85 9.69397 105.574 9.83806 105.245 9.94853C104.913 10.0614 104.596 10.1178 104.294 10.1178Z" fill="white"/>
<path d="M113.165 10.1179C112.654 10.1179 112.193 9.9978 111.782 9.75765C111.371 9.5175 111.047 9.19089 110.809 8.77782C110.569 8.36476 110.449 7.90006 110.449 7.38373C110.449 6.865 110.56 6.4003 110.781 5.98964C110.999 5.58137 111.298 5.25717 111.678 5.01701C112.059 4.77686 112.489 4.65678 112.967 4.65678C113.354 4.65678 113.712 4.73723 114.041 4.89814C114.367 5.05904 114.642 5.27758 114.866 5.55376V2.89885C114.866 2.74756 114.912 2.62628 115.006 2.53502C115.102 2.44136 115.222 2.39453 115.366 2.39453C115.518 2.39453 115.639 2.44136 115.73 2.53502C115.821 2.62628 115.867 2.74756 115.867 2.89885V7.38373C115.867 7.90006 115.748 8.36476 115.51 8.77782C115.27 9.19089 114.947 9.5175 114.541 9.75765C114.136 9.9978 113.677 10.1179 113.165 10.1179ZM113.165 9.23171C113.499 9.23171 113.797 9.15126 114.059 8.99036C114.321 8.82946 114.527 8.60851 114.678 8.32753C114.83 8.04415 114.905 7.72955 114.905 7.38373C114.905 7.0283 114.83 6.7137 114.678 6.43992C114.527 6.16375 114.321 5.94521 114.059 5.7843C113.797 5.6234 113.499 5.54295 113.165 5.54295C112.836 5.54295 112.54 5.6234 112.276 5.7843C112.009 5.94521 111.799 6.16375 111.645 6.43992C111.491 6.7137 111.415 7.0283 111.415 7.38373C111.415 7.72955 111.491 8.04415 111.645 8.32753C111.799 8.60851 112.009 8.82946 112.276 8.99036C112.54 9.15126 112.836 9.23171 113.165 9.23171Z" fill="white"/>
<path d="M121.289 10.0785C121.145 10.0785 121.025 10.0304 120.929 9.93436C120.832 9.8383 120.784 9.71823 120.784 9.57413V5.20093C120.784 5.04963 120.832 4.92835 120.929 4.8371C121.025 4.74344 121.145 4.69661 121.289 4.69661C121.438 4.69661 121.559 4.74344 121.653 4.8371C121.744 4.92835 121.789 5.04963 121.789 5.20093V9.57413C121.789 9.71823 121.744 9.8383 121.653 9.93436C121.559 10.0304 121.438 10.0785 121.289 10.0785ZM121.289 3.82125C121.111 3.82125 120.959 3.7576 120.831 3.63032C120.702 3.50304 120.637 3.35054 120.637 3.17283C120.637 2.99512 120.702 2.84262 120.831 2.71534C120.959 2.58806 121.111 2.52441 121.289 2.52441C121.464 2.52441 121.617 2.58806 121.746 2.71534C121.874 2.84262 121.937 2.99512 121.937 3.17283C121.937 3.35054 121.874 3.50304 121.746 3.63032C121.617 3.7576 121.464 3.82125 121.289 3.82125Z" fill="white"/>
<path d="M129.146 10.1178C128.62 10.1178 128.153 9.99776 127.745 9.75761C127.334 9.51745 127.012 9.19325 126.779 8.78498C126.546 8.37432 126.43 7.90962 126.43 7.39089C126.43 6.86015 126.545 6.38825 126.776 5.97518C127.004 5.56212 127.318 5.23911 127.719 5.00616C128.12 4.77321 128.579 4.65674 129.095 4.65674C129.482 4.65674 129.836 4.73119 130.158 4.88008C130.48 5.02658 130.768 5.24752 131.023 5.54291C131.116 5.64857 131.15 5.75664 131.123 5.86711C131.097 5.97999 131.025 6.07845 130.907 6.1625C130.814 6.22734 130.712 6.24896 130.601 6.22734C130.488 6.20333 130.386 6.14569 130.295 6.05443C129.973 5.71342 129.573 5.54291 129.095 5.54291C128.762 5.54291 128.467 5.61976 128.213 5.77345C127.956 5.92715 127.755 6.14209 127.611 6.41827C127.467 6.69444 127.395 7.01865 127.395 7.39089C127.395 7.74632 127.468 8.06092 127.615 8.3347C127.764 8.61087 127.969 8.82941 128.231 8.99032C128.493 9.15122 128.798 9.23167 129.146 9.23167C129.374 9.23167 129.576 9.20405 129.751 9.14882C129.924 9.09118 130.082 9.00352 130.227 8.88585C130.332 8.80179 130.44 8.75496 130.551 8.74536C130.664 8.73575 130.762 8.76697 130.846 8.83902C130.959 8.93028 131.021 9.03354 131.033 9.14882C131.045 9.26169 131.006 9.36496 130.915 9.45862C130.444 9.8981 129.854 10.1178 129.146 10.1178Z" fill="white"/>
<path d="M137.907 10.1178C137.429 10.1178 137 9.99776 136.621 9.75761C136.239 9.51745 135.939 9.19325 135.72 8.78498C135.499 8.37432 135.389 7.90962 135.389 7.39089C135.389 6.87456 135.509 6.40986 135.749 5.9968C135.989 5.58373 136.313 5.25712 136.722 5.01697C137.132 4.77682 137.593 4.65674 138.105 4.65674C138.616 4.65674 139.075 4.77682 139.481 5.01697C139.887 5.25712 140.21 5.58373 140.45 5.9968C140.69 6.40986 140.81 6.87456 140.81 7.39089H140.425C140.425 7.90962 140.315 8.37432 140.097 8.78498C139.876 9.19325 139.576 9.51745 139.196 9.75761C138.817 9.99776 138.387 10.1178 137.907 10.1178ZM138.105 9.23167C138.439 9.23167 138.736 9.15122 138.998 8.99032C139.262 8.82941 139.469 8.60967 139.618 8.33109C139.769 8.05251 139.845 7.73911 139.845 7.39089C139.845 7.03786 139.769 6.72206 139.618 6.44348C139.469 6.1649 139.262 5.94516 138.998 5.78426C138.736 5.62336 138.439 5.54291 138.105 5.54291C137.776 5.54291 137.479 5.62336 137.215 5.78426C136.948 5.94516 136.738 6.1649 136.585 6.44348C136.431 6.72206 136.354 7.03786 136.354 7.39089C136.354 7.73911 136.431 8.05251 136.585 8.33109C136.738 8.60967 136.948 8.82941 137.215 8.99032C137.479 9.15122 137.776 9.23167 138.105 9.23167ZM140.306 10.0854C140.162 10.0854 140.043 10.0386 139.949 9.94493C139.853 9.84887 139.805 9.72879 139.805 9.5847V8.07893L139.992 7.03786L140.81 7.39089V9.5847C140.81 9.72879 140.762 9.84887 140.666 9.94493C140.57 10.0386 140.45 10.0854 140.306 10.0854Z" fill="white"/>
</svg>
