<svg width="264" height="63" viewBox="0 0 264 63" fill="none" xmlns="http://www.w3.org/2000/svg">
<path d="M1.24902 31.7412H252.895" stroke="white" stroke-width="2.2949"/>
<mask id="mask0_182_10065" style="mask-type:luminance" maskUnits="userSpaceOnUse" x="0" y="0" width="62" height="63">
<path d="M30.8769 62.618C47.9297 62.618 61.7537 48.7939 61.7537 31.7411C61.7537 14.6883 47.9297 0.864258 30.8769 0.864258C13.824 0.864258 0 14.6883 0 31.7411C0 48.7939 13.824 62.618 30.8769 62.618Z" fill="white"/>
</mask>
<g mask="url(#mask0_182_10065)">
<path d="M30.8769 62.618C47.9297 62.618 61.7537 48.7939 61.7537 31.7411C61.7537 14.6883 47.9297 0.864258 30.8769 0.864258C13.824 0.864258 0 14.6883 0 31.7411C0 48.7939 13.824 62.618 30.8769 62.618Z" stroke="white" stroke-width="2.84211"/>
</g>
<mask id="mask1_182_10065" style="mask-type:luminance" maskUnits="userSpaceOnUse" x="43" y="15" width="33" height="33">
<path d="M59.7498 47.9097C68.6801 47.9097 75.9195 40.6703 75.9195 31.74C75.9195 22.8097 68.6801 15.5703 59.7498 15.5703C50.8195 15.5703 43.5801 22.8097 43.5801 31.74C43.5801 40.6703 50.8195 47.9097 59.7498 47.9097Z" fill="white"/>
</mask>
<g mask="url(#mask1_182_10065)">
<path d="M59.7498 47.9097C68.6801 47.9097 75.9195 40.6703 75.9195 31.74C75.9195 22.8097 68.6801 15.5703 59.7498 15.5703C50.8195 15.5703 43.5801 22.8097 43.5801 31.74C43.5801 40.6703 50.8195 47.9097 59.7498 47.9097Z" stroke="white" stroke-width="2.84211"/>
</g>
<mask id="mask2_182_10065" style="mask-type:luminance" maskUnits="userSpaceOnUse" x="251" y="25" width="13" height="13">
<path d="M257.905 37.8367C261.271 37.8367 264 35.1078 264 31.7415C264 28.3752 261.271 25.6462 257.905 25.6462C254.539 25.6462 251.81 28.3752 251.81 31.7415C251.81 35.1078 254.539 37.8367 257.905 37.8367Z" fill="white"/>
</mask>
<g mask="url(#mask2_182_10065)">
<path d="M257.905 37.8367C261.271 37.8367 264 35.1078 264 31.7415C264 28.3752 261.271 25.6462 257.905 25.6462C254.539 25.6462 251.81 28.3752 251.81 31.7415C251.81 35.1078 254.539 37.8367 257.905 37.8367Z" fill="white" stroke="white" stroke-width="2.84211"/>
</g>
<path d="M84.9338 18.2085C84.1145 18.2085 83.3796 18.0027 82.7292 17.591C82.0746 17.1793 81.56 16.6235 81.1853 15.9237C80.8066 15.2197 80.6172 14.423 80.6172 13.5338C80.6172 12.6487 80.823 11.852 81.2347 11.1439C81.6464 10.4358 82.2022 9.87591 82.9021 9.46422C83.6061 9.05253 84.3965 8.84668 85.2734 8.84668C86.1503 8.84668 86.9367 9.05253 87.6324 9.46422C88.3282 9.87591 88.8819 10.4358 89.2936 11.1439C89.7053 11.852 89.9111 12.6487 89.9111 13.5338H89.2504C89.2504 14.423 89.063 15.2197 88.6884 15.9237C88.3096 16.6235 87.795 17.1793 87.1446 17.591C86.4941 18.0027 85.7572 18.2085 84.9338 18.2085ZM85.2734 16.6894C85.8457 16.6894 86.3562 16.5515 86.8049 16.2757C87.2537 15.9998 87.6077 15.6231 87.8671 15.1456C88.1264 14.668 88.2561 14.1307 88.2561 13.5338C88.2561 12.9286 88.1264 12.3872 87.8671 11.9097C87.6077 11.4321 87.2537 11.0554 86.8049 10.7796C86.3562 10.5037 85.8457 10.3658 85.2734 10.3658C84.7094 10.3658 84.201 10.5037 83.7481 10.7796C83.2911 11.0554 82.9309 11.4321 82.6674 11.9097C82.4039 12.3872 82.2722 12.9286 82.2722 13.5338C82.2722 14.1307 82.4039 14.668 82.6674 15.1456C82.9309 15.6231 83.2911 15.9998 83.7481 16.2757C84.201 16.5515 84.7094 16.6894 85.2734 16.6894ZM89.0466 18.153C88.7996 18.153 88.5958 18.0727 88.4352 17.9121C88.2705 17.7474 88.1882 17.5416 88.1882 17.2946V14.7133L88.5093 12.9286L89.9111 13.5338V17.2946C89.9111 17.5416 89.8288 17.7474 89.6641 17.9121C89.4994 18.0727 89.2936 18.153 89.0466 18.153Z" fill="white"/>
<path d="M101.051 18.2085C100.265 18.2085 99.5384 18.0871 98.8714 17.8442C98.2004 17.6013 97.6796 17.2946 97.309 16.9241C97.1402 16.7429 97.0703 16.5371 97.0991 16.3065C97.1279 16.076 97.237 15.8887 97.4264 15.7446C97.6528 15.5634 97.8751 15.4873 98.0933 15.5161C98.3115 15.5449 98.4988 15.6437 98.6553 15.8125C98.8488 16.0266 99.1555 16.2263 99.5754 16.4115C99.9994 16.5968 100.469 16.6894 100.983 16.6894C101.638 16.6894 102.136 16.5824 102.478 16.3683C102.82 16.1542 102.997 15.8784 103.009 15.5408C103.021 15.2032 102.861 14.9109 102.527 14.6639C102.194 14.4169 101.591 14.2151 100.718 14.0587C99.5816 13.8323 98.7582 13.4947 98.2477 13.0459C97.7331 12.5972 97.4758 12.0476 97.4758 11.3971C97.4758 10.8207 97.6446 10.3452 97.9822 9.9706C98.3197 9.59184 98.752 9.30983 99.279 9.12457C99.8101 8.93931 100.362 8.84668 100.934 8.84668C101.675 8.84668 102.332 8.96607 102.904 9.20485C103.48 9.43952 103.937 9.76475 104.275 10.1806C104.431 10.3617 104.503 10.549 104.491 10.7425C104.479 10.9401 104.384 11.1069 104.207 11.2427C104.026 11.3662 103.812 11.4053 103.565 11.3601C103.318 11.3148 103.11 11.2139 102.941 11.0575C102.661 10.7857 102.356 10.6005 102.027 10.5017C101.702 10.3988 101.327 10.3473 100.903 10.3473C100.405 10.3473 99.985 10.4317 99.6433 10.6005C99.3016 10.7693 99.1308 11.0163 99.1308 11.3415C99.1308 11.5474 99.1843 11.7306 99.2913 11.8911C99.3984 12.0558 99.6083 12.202 99.9212 12.3296C100.238 12.4613 100.699 12.589 101.305 12.7125C102.148 12.8771 102.815 13.0892 103.305 13.3485C103.791 13.6079 104.141 13.9084 104.355 14.2501C104.569 14.596 104.676 14.9932 104.676 15.442C104.676 15.9566 104.538 16.4218 104.263 16.8376C103.987 17.2534 103.583 17.5848 103.052 17.8318C102.517 18.083 101.85 18.2085 101.051 18.2085Z" fill="white"/>
<path d="M115.736 18.1408H115.433C114.869 18.1408 114.363 17.9967 113.914 17.7085C113.466 17.4203 113.111 17.0292 112.852 16.5352C112.593 16.0411 112.463 15.4853 112.463 14.8678V6.82747C112.463 6.58046 112.543 6.37667 112.704 6.21611C112.86 6.05967 113.062 5.98145 113.309 5.98145C113.556 5.98145 113.758 6.05967 113.914 6.21611C114.071 6.37667 114.149 6.58046 114.149 6.82747V14.8678C114.149 15.3166 114.272 15.6932 114.519 15.9979C114.766 16.3026 115.071 16.4549 115.433 16.4549H116.008C116.209 16.4549 116.38 16.5331 116.52 16.6895C116.66 16.846 116.73 17.0477 116.73 17.2947C116.73 17.5417 116.638 17.7435 116.452 17.8999C116.267 18.0605 116.028 18.1408 115.736 18.1408ZM115.582 10.7056H111.691C111.452 10.7056 111.261 10.6377 111.117 10.5018C110.969 10.366 110.895 10.1972 110.895 9.99544C110.895 9.76901 110.969 9.58992 111.117 9.45818C111.261 9.32232 111.452 9.25439 111.691 9.25439H115.582C115.82 9.25439 116.012 9.32232 116.156 9.45818C116.304 9.58992 116.378 9.76901 116.378 9.99544C116.378 10.1972 116.304 10.366 116.156 10.5018C116.012 10.6377 115.82 10.7056 115.582 10.7056Z" fill="white"/>
<path d="M125.752 12.3724H124.888C124.888 11.6973 125.054 11.0921 125.388 10.5569C125.717 10.0258 126.164 9.60176 126.728 9.28476C127.288 8.97187 127.905 8.81543 128.581 8.81543C129.256 8.81543 129.76 8.92453 130.094 9.14272C130.423 9.36092 130.548 9.62235 130.47 9.927C130.437 10.0834 130.374 10.2049 130.279 10.2913C130.18 10.3737 130.069 10.4272 129.945 10.4519C129.822 10.4725 129.688 10.4663 129.544 10.4334C128.824 10.2893 128.177 10.279 127.605 10.4025C127.033 10.526 126.58 10.7545 126.246 11.088C125.917 11.4256 125.752 11.8537 125.752 12.3724ZM124.906 18.1402C124.639 18.1402 124.431 18.0682 124.283 17.9241C124.138 17.7841 124.066 17.5742 124.066 17.2942V9.76026C124.066 9.48855 124.138 9.28064 124.283 9.13655C124.431 8.98834 124.639 8.91424 124.906 8.91424C125.186 8.91424 125.396 8.98422 125.536 9.1242C125.68 9.26829 125.752 9.48031 125.752 9.76026V17.2942C125.752 17.5659 125.68 17.7738 125.536 17.9179C125.396 18.0661 125.186 18.1402 124.906 18.1402Z" fill="white"/>
<path d="M140.988 18.2085C140.078 18.2085 139.275 18.0089 138.58 17.6095C137.884 17.2102 137.336 16.6585 136.937 15.9545C136.538 15.2505 136.338 14.4436 136.338 13.5338C136.338 12.6116 136.538 11.8006 136.937 11.1007C137.336 10.3967 137.884 9.84503 138.58 9.44569C139.275 9.04635 140.078 8.84668 140.988 8.84668C141.89 8.84668 142.688 9.04635 143.384 9.44569C144.08 9.84503 144.627 10.3967 145.027 11.1007C145.426 11.8006 145.626 12.6116 145.626 13.5338C145.626 14.4436 145.43 15.2505 145.039 15.9545C144.644 16.6585 144.098 17.2102 143.403 17.6095C142.707 18.0089 141.902 18.2085 140.988 18.2085ZM140.988 16.6894C141.573 16.6894 142.091 16.5535 142.544 16.2818C142.993 16.0142 143.343 15.6437 143.594 15.1703C143.849 14.6968 143.977 14.1513 143.977 13.5338C143.977 12.9163 143.849 12.3687 143.594 11.8911C143.343 11.4136 142.993 11.041 142.544 10.7734C142.091 10.5017 141.573 10.3658 140.988 10.3658C140.407 10.3658 139.891 10.5017 139.438 10.7734C138.989 11.041 138.635 11.4136 138.376 11.8911C138.121 12.3687 137.993 12.9163 137.993 13.5338C137.993 14.1513 138.121 14.6968 138.376 15.1703C138.635 15.6437 138.989 16.0142 139.438 16.2818C139.891 16.5535 140.407 16.6894 140.988 16.6894Z" fill="white"/>
<path d="M165.523 18.1536C165.276 18.1536 165.07 18.0733 164.905 17.9128C164.74 17.7481 164.658 17.5422 164.658 17.2952V12.4723C164.658 11.7641 164.485 11.2392 164.139 10.8975C163.789 10.5558 163.335 10.385 162.775 10.385C162.19 10.385 161.708 10.5867 161.33 10.9902C160.955 11.3936 160.768 11.9103 160.768 12.5402H159.366C159.366 11.8115 159.524 11.1693 159.841 10.6135C160.154 10.0577 160.595 9.62129 161.163 9.30429C161.731 8.9914 162.379 8.83496 163.108 8.83496C163.75 8.83496 164.318 8.97494 164.813 9.25489C165.307 9.53484 165.691 9.94859 165.967 10.4961C166.243 11.0396 166.381 11.6983 166.381 12.4723V17.2952C166.381 17.5422 166.303 17.7481 166.146 17.9128C165.986 18.0733 165.778 18.1536 165.523 18.1536ZM154.277 18.1536C154.03 18.1536 153.824 18.0733 153.66 17.9128C153.499 17.7481 153.419 17.5422 153.419 17.2952V9.79214C153.419 9.53278 153.499 9.32487 153.66 9.16843C153.824 9.01199 154.03 8.93377 154.277 8.93377C154.537 8.93377 154.745 9.01199 154.901 9.16843C155.057 9.32487 155.136 9.53278 155.136 9.79214V17.2952C155.136 17.5422 155.057 17.7481 154.901 17.9128C154.745 18.0733 154.537 18.1536 154.277 18.1536ZM159.909 18.1536C159.658 18.1536 159.452 18.0733 159.292 17.9128C159.127 17.7481 159.045 17.5422 159.045 17.2952V12.4723C159.045 11.7641 158.872 11.2392 158.526 10.8975C158.176 10.5558 157.721 10.385 157.161 10.385C156.577 10.385 156.093 10.5867 155.71 10.9902C155.327 11.3936 155.136 11.9103 155.136 12.5402H154.074C154.074 11.8115 154.22 11.1693 154.512 10.6135C154.804 10.0577 155.21 9.62129 155.729 9.30429C156.243 8.9914 156.832 8.83496 157.495 8.83496C158.137 8.83496 158.705 8.97494 159.199 9.25489C159.693 9.53484 160.078 9.94859 160.354 10.4961C160.63 11.0396 160.768 11.6983 160.768 12.4723V17.2952C160.768 17.5422 160.689 17.7481 160.533 17.9128C160.372 18.0733 160.165 18.1536 159.909 18.1536Z" fill="white"/>
<path d="M178.787 18.2085C177.856 18.2085 177.027 18.0089 176.298 17.6095C175.574 17.2102 175.008 16.6585 174.6 15.9545C174.188 15.2505 173.982 14.4436 173.982 13.5338C173.982 12.6116 174.176 11.8006 174.563 11.1007C174.95 10.3967 175.487 9.84503 176.175 9.44569C176.862 9.04635 177.649 8.84668 178.534 8.84668C179.411 8.84668 180.164 9.04223 180.794 9.43334C181.424 9.82033 181.903 10.3535 182.233 11.0328C182.566 11.7121 182.733 12.4963 182.733 13.3856C182.733 13.5997 182.659 13.7767 182.511 13.9167C182.367 14.0566 182.181 14.1266 181.955 14.1266H175.162V12.7742H181.905L181.214 13.2497C181.206 12.6857 181.094 12.1834 180.88 11.7429C180.666 11.2983 180.362 10.9463 179.966 10.6869C179.575 10.4276 179.098 10.2979 178.534 10.2979C177.896 10.2979 177.348 10.4379 176.891 10.7178C176.434 11.0019 176.088 11.3868 175.854 11.8726C175.619 12.3625 175.502 12.9163 175.502 13.5338C175.502 14.1513 175.642 14.703 175.921 15.1888C176.201 15.6705 176.588 16.0513 177.082 16.3312C177.581 16.6153 178.149 16.7573 178.787 16.7573C179.137 16.7573 179.495 16.6915 179.861 16.5597C180.224 16.4321 180.518 16.2839 180.744 16.1151C180.913 15.9916 181.096 15.9278 181.294 15.9237C181.488 15.9154 181.658 15.9731 181.807 16.0966C181.996 16.2654 182.097 16.4506 182.109 16.6524C182.122 16.8582 182.031 17.0332 181.837 17.1773C181.455 17.4819 180.981 17.7289 180.417 17.9183C179.849 18.1118 179.306 18.2085 178.787 18.2085Z" fill="white"/>
<path d="M193.997 18.2087C193.12 18.2087 192.33 18.0029 191.626 17.5912C190.922 17.1795 190.366 16.6196 189.959 15.9115C189.547 15.2034 189.341 14.4068 189.341 13.5216C189.341 12.6324 189.53 11.8358 189.909 11.1318C190.284 10.4319 190.796 9.87611 191.447 9.46442C192.101 9.05273 192.838 8.84688 193.658 8.84688C194.32 8.84688 194.934 8.9848 195.498 9.26063C196.058 9.53647 196.529 9.91111 196.912 10.3846V5.8333C196.912 5.57394 196.992 5.36603 197.153 5.20959C197.318 5.04903 197.523 4.96875 197.77 4.96875C198.03 4.96875 198.238 5.04903 198.394 5.20959C198.551 5.36603 198.629 5.57394 198.629 5.8333V13.5216C198.629 14.4068 198.425 15.2034 198.017 15.9115C197.606 16.6196 197.052 17.1795 196.356 17.5912C195.661 18.0029 194.874 18.2087 193.997 18.2087ZM193.997 16.6896C194.57 16.6896 195.08 16.5517 195.529 16.2759C195.978 16 196.332 15.6213 196.591 15.1396C196.85 14.6538 196.98 14.1145 196.98 13.5216C196.98 12.9123 196.85 12.373 196.591 11.9037C196.332 11.4302 195.978 11.0556 195.529 10.7798C195.08 10.5039 194.57 10.366 193.997 10.366C193.433 10.366 192.925 10.5039 192.472 10.7798C192.015 11.0556 191.655 11.4302 191.391 11.9037C191.128 12.373 190.996 12.9123 190.996 13.5216C190.996 14.1145 191.128 14.6538 191.391 15.1396C191.655 15.6213 192.015 16 192.472 16.2759C192.925 16.5517 193.433 16.6896 193.997 16.6896Z" fill="white"/>
<path d="M207.922 18.1412C207.675 18.1412 207.47 18.0588 207.305 17.8941C207.14 17.7295 207.058 17.5236 207.058 17.2766V9.77971C207.058 9.52034 207.14 9.31244 207.305 9.156C207.47 8.99544 207.675 8.91516 207.922 8.91516C208.178 8.91516 208.386 8.99544 208.546 9.156C208.703 9.31244 208.781 9.52034 208.781 9.77971V17.2766C208.781 17.5236 208.703 17.7295 208.546 17.8941C208.386 18.0588 208.178 18.1412 207.922 18.1412ZM207.922 7.41454C207.618 7.41454 207.356 7.30544 207.138 7.08725C206.916 6.86905 206.805 6.60763 206.805 6.30297C206.805 5.99832 206.916 5.7369 207.138 5.5187C207.356 5.3005 207.618 5.19141 207.922 5.19141C208.223 5.19141 208.484 5.3005 208.707 5.5187C208.925 5.7369 209.034 5.99832 209.034 6.30297C209.034 6.60763 208.925 6.86905 208.707 7.08725C208.484 7.30544 208.223 7.41454 207.922 7.41454Z" fill="white"/>
<path d="M221.391 18.2085C220.489 18.2085 219.688 18.0027 218.988 17.591C218.284 17.1793 217.733 16.6235 217.333 15.9237C216.934 15.2197 216.734 14.423 216.734 13.5338C216.734 12.6239 216.932 11.815 217.327 11.1069C217.718 10.3988 218.258 9.84503 218.945 9.44569C219.633 9.04635 220.419 8.84668 221.304 8.84668C221.967 8.84668 222.574 8.9743 223.126 9.22955C223.678 9.48068 224.172 9.85944 224.608 10.3658C224.769 10.547 224.826 10.7322 224.781 10.9216C224.736 11.1151 224.612 11.2839 224.41 11.428C224.25 11.5391 224.075 11.5762 223.885 11.5391C223.692 11.498 223.517 11.3992 223.361 11.2427C222.809 10.6581 222.123 10.3658 221.304 10.3658C220.732 10.3658 220.228 10.4976 219.791 10.761C219.351 11.0245 219.007 11.393 218.76 11.8664C218.513 12.3399 218.389 12.8957 218.389 13.5338C218.389 14.1431 218.515 14.6824 218.766 15.1517C219.021 15.6252 219.373 15.9998 219.822 16.2757C220.271 16.5515 220.794 16.6894 221.391 16.6894C221.782 16.6894 222.128 16.6421 222.428 16.5474C222.724 16.4486 222.996 16.2983 223.243 16.0966C223.424 15.9525 223.61 15.8722 223.799 15.8557C223.992 15.8393 224.161 15.8928 224.305 16.0163C224.499 16.1727 224.606 16.3498 224.627 16.5474C224.647 16.7409 224.579 16.9179 224.423 17.0785C223.616 17.8318 222.605 18.2085 221.391 18.2085Z" fill="white"/>
<path d="M236.409 18.2085C235.59 18.2085 234.855 18.0027 234.205 17.591C233.55 17.1793 233.036 16.6235 232.661 15.9237C232.282 15.2197 232.093 14.423 232.093 13.5338C232.093 12.6487 232.299 11.852 232.71 11.1439C233.122 10.4358 233.678 9.87591 234.378 9.46422C235.082 9.05253 235.872 8.84668 236.749 8.84668C237.626 8.84668 238.412 9.05253 239.108 9.46422C239.804 9.87591 240.357 10.4358 240.769 11.1439C241.181 11.852 241.387 12.6487 241.387 13.5338H240.726C240.726 14.423 240.539 15.2197 240.164 15.9237C239.785 16.6235 239.271 17.1793 238.62 17.591C237.97 18.0027 237.233 18.2085 236.409 18.2085ZM236.749 16.6894C237.321 16.6894 237.832 16.5515 238.28 16.2757C238.733 15.9998 239.087 15.6231 239.343 15.1456C239.602 14.668 239.732 14.1307 239.732 13.5338C239.732 12.9286 239.602 12.3872 239.343 11.9097C239.087 11.4321 238.733 11.0554 238.28 10.7796C237.832 10.5037 237.321 10.3658 236.749 10.3658C236.185 10.3658 235.677 10.5037 235.224 10.7796C234.767 11.0554 234.406 11.4321 234.143 11.9097C233.88 12.3872 233.748 12.9286 233.748 13.5338C233.748 14.1307 233.88 14.668 234.143 15.1456C234.406 15.6231 234.767 15.9998 235.224 16.2757C235.677 16.5515 236.185 16.6894 236.749 16.6894ZM240.522 18.153C240.275 18.153 240.071 18.0727 239.911 17.9121C239.746 17.7474 239.664 17.5416 239.664 17.2946V14.7133L239.985 12.9286L241.387 13.5338V17.2946C241.387 17.5416 241.304 17.7474 241.14 17.9121C240.975 18.0727 240.769 18.153 240.522 18.153Z" fill="white"/>
</svg>
