<svg width="34" height="35" viewBox="0 0 34 35" fill="none" xmlns="http://www.w3.org/2000/svg">
<path fill-rule="evenodd" clip-rule="evenodd" d="M3.1875 8.51172C3.1875 7.92522 3.6635 7.44922 4.25 7.44922H29.75C30.0318 7.44922 30.302 7.56116 30.5013 7.76042C30.7006 7.95968 30.8125 8.22993 30.8125 8.51172C30.8125 8.79351 30.7006 9.06376 30.5013 9.26302C30.302 9.46228 30.0318 9.57422 29.75 9.57422H4.25C3.6635 9.57422 3.1875 9.09822 3.1875 8.51172ZM3.1875 25.5117C3.1875 24.9252 3.6635 24.4492 4.25 24.4492H29.75C30.0318 24.4492 30.302 24.5612 30.5013 24.7604C30.7006 24.9597 30.8125 25.2299 30.8125 25.5117C30.8125 25.7935 30.7006 26.0638 30.5013 26.263C30.302 26.4623 30.0318 26.5742 29.75 26.5742H4.25C3.6635 26.5742 3.1875 26.0982 3.1875 25.5117ZM8.85445 17.0117C8.85445 16.4252 9.33045 15.9492 9.91695 15.9492H29.75C30.0318 15.9492 30.302 16.0612 30.5013 16.2604C30.7006 16.4597 30.8125 16.7299 30.8125 17.0117C30.8125 17.2935 30.7006 17.5638 30.5013 17.763C30.302 17.9623 30.0318 18.0742 29.75 18.0742H9.91695C9.33045 18.0742 8.85445 17.5982 8.85445 17.0117Z" fill="white"/>
</svg>
