<svg width="36" height="35" viewBox="0 0 36 35" fill="none" xmlns="http://www.w3.org/2000/svg">
<g clip-path="url(#clip0_6_15088)">
<path d="M30.3725 5.12377C23.5373 -1.70937 12.4569 -1.70773 5.62377 5.12753C-1.20937 11.9628 -1.20773 23.0431 5.62753 29.8763C12.4628 36.7094 23.5431 36.7078 30.3763 29.8725C32.0011 28.2473 33.2898 26.3179 34.169 24.1945C35.0481 22.0712 35.5004 19.7955 35.5 17.4974C35.4997 15.1992 35.0467 12.9237 34.1669 10.8006C33.2871 8.67754 31.9978 6.74854 30.3725 5.12377ZM27.0032 24.3773L27.0008 24.3796V24.3738L26.1141 25.2546C25.5503 25.8256 24.8488 26.2415 24.0773 26.4622C23.3058 26.6829 22.4905 26.701 21.71 26.5146C20.1107 26.0866 18.5904 25.4052 17.2066 24.4963C15.921 23.6747 14.7297 22.7142 13.6541 21.6321C12.6645 20.6497 11.7754 19.5711 11 18.4121C10.1518 17.1651 9.48038 15.8067 9.00496 14.3755C8.73773 13.5511 8.70533 12.6686 8.9114 11.8268C9.11746 10.9851 9.55384 10.2174 10.1716 9.60964L11.21 8.57133C11.4986 8.28135 11.9677 8.28033 12.2576 8.56901L12.26 8.57133L15.5383 11.8496C15.8282 12.1383 15.8293 12.6074 15.5406 12.8973L15.5383 12.8996L13.6133 14.8246C13.0609 15.371 12.9915 16.2391 13.45 16.8663C14.1462 17.8218 14.9167 18.721 15.7541 19.5555C16.6879 20.4933 17.703 21.3464 18.7875 22.1047C19.4141 22.5418 20.2637 22.4681 20.8058 21.9297L22.6666 20.0397C22.9553 19.7497 23.4243 19.7487 23.7143 20.0374L23.7166 20.0397L27.0008 23.3297C27.2908 23.6183 27.2918 24.0873 27.0032 24.3773Z" fill="#495363" fill-opacity="0.2"/>
</g>
<defs>
<clipPath id="clip0_6_15088">
<rect width="35" height="35" fill="white" transform="translate(0.5)"/>
</clipPath>
</defs>
</svg>
