<svg width="60" height="60" viewBox="0 0 60 60" fill="none" xmlns="http://www.w3.org/2000/svg">
<path fill-rule="evenodd" clip-rule="evenodd" d="M21.1374 21.6274L20.5049 26.0599C20.4852 26.1942 20.423 26.3186 20.3274 26.4149L12.0774 34.6649C10.7882 35.9542 10.0639 37.7029 10.0639 39.5262C10.0639 41.3495 10.7882 43.0981 12.0774 44.3874L15.6124 47.9224C16.9017 49.2117 18.6504 49.936 20.4737 49.936C22.297 49.936 24.0456 49.2117 25.3349 47.9224L33.5849 39.6724C33.6813 39.5768 33.8057 39.5146 33.9399 39.4949L38.3724 38.8624L21.1374 21.6274ZM22.2424 37.7574C22.01 37.5253 21.7341 37.3413 21.4305 37.2158C21.127 37.0903 20.8017 37.0258 20.4732 37.026C20.1447 37.0263 19.8195 37.0912 19.5161 37.2171C19.2127 37.343 18.937 37.5275 18.7049 37.7599C18.4728 37.9924 18.2888 38.2682 18.1633 38.5718C18.0378 38.8754 17.9733 39.2007 17.9735 39.5292C17.9738 39.8577 18.0387 40.1829 18.1646 40.4863C18.2906 40.7897 18.475 41.0653 18.7074 41.2974C19.1769 41.7662 19.8133 42.0293 20.4767 42.0288C21.1401 42.0283 21.7762 41.7644 22.2449 41.2949C22.7137 40.8255 22.9768 40.1891 22.9763 39.5257C22.9759 38.8622 22.7119 38.2262 22.2424 37.7574ZM23.1249 18.3124L41.6874 36.8749L47.4324 31.1274C48.2522 30.307 48.7128 29.1947 48.7128 28.0349C48.7128 26.8751 48.2522 25.7628 47.4324 24.9424C43.3087 20.8162 39.1837 16.6912 35.0574 12.5674C34.2371 11.7476 33.1247 11.2871 31.9649 11.2871C30.8051 11.2871 29.6928 11.7476 28.8724 12.5674L23.1249 18.3124Z" fill="white"/>
<path fill-rule="evenodd" clip-rule="evenodd" d="M13.8449 43.5022L10.3099 47.0372C9.95817 47.3889 9.76056 47.866 9.76056 48.3634C9.76056 48.8609 9.95817 49.3379 10.3099 49.6897C10.6617 50.0414 11.1387 50.239 11.6362 50.239C12.1336 50.239 12.6107 50.0414 12.9624 49.6897L16.4974 46.1547C16.8481 45.8024 17.0449 45.3255 17.0449 44.8284C17.0449 44.3313 16.8481 43.8545 16.4974 43.5022C16.1451 43.1515 15.6682 42.9546 15.1712 42.9546C14.6741 42.9546 14.1972 43.1515 13.8449 43.5022ZM48.8249 19.4272C48.1999 17.5647 47.1474 15.8172 45.6649 14.3347C44.1824 12.8522 42.4349 11.7997 40.5724 11.1747C40.1092 11.0463 39.6145 11.1004 39.19 11.3259C38.7655 11.5514 38.4437 11.9312 38.2909 12.3869C38.138 12.8425 38.1657 13.3395 38.3684 13.7754C38.571 14.2112 38.933 14.5528 39.3799 14.7297C40.7074 15.1772 41.9549 15.9297 43.0124 16.9872C44.0699 18.0447 44.8224 19.2922 45.2699 20.6197C45.3458 20.8561 45.4679 21.0751 45.629 21.264C45.7902 21.4528 45.9873 21.6078 46.2089 21.7199C46.4305 21.8319 46.6721 21.8989 46.9197 21.9168C47.1674 21.9348 47.4161 21.9034 47.6515 21.8244C47.8869 21.7454 48.1043 21.6205 48.291 21.4568C48.4778 21.2932 48.6301 21.0941 48.7393 20.871C48.8485 20.648 48.9123 20.4056 48.9269 20.1577C48.9416 19.9098 48.907 19.6615 48.8249 19.4272Z" fill="white"/>
<path fill-rule="evenodd" clip-rule="evenodd" d="M55.1849 18.9325C54.3385 15.518 52.5749 12.3999 50.0849 9.91498C47.6 7.42494 44.4819 5.6614 41.0674 4.81498C40.5948 4.72283 40.1048 4.81581 39.6988 5.07469C39.2927 5.33357 39.0017 5.73857 38.8858 6.20595C38.7699 6.67334 38.8381 7.16739 39.0761 7.58596C39.3142 8.00454 39.704 8.31565 40.1649 8.45497C42.8299 9.11497 45.3524 10.4875 47.4324 12.5675C49.5124 14.6475 50.8849 17.17 51.5449 19.835C51.6646 20.3177 51.9711 20.7331 52.3971 20.9897C52.823 21.2464 53.3335 21.3234 53.8162 21.2037C54.2989 21.084 54.7142 20.7775 54.9709 20.3516C55.2276 19.9256 55.3046 19.4152 55.1849 18.9325Z" fill="white"/>
</svg>
