<svg width="48" height="48" viewBox="0 0 48 48" fill="none" xmlns="http://www.w3.org/2000/svg">
<rect x="7.2959" y="11.5195" width="33.792" height="21.12" fill="white"/>
<path d="M41 42H7C5.67441 41.9984 4.40356 41.4711 3.46622 40.5338C2.52888 39.5964 2.00159 38.3256 2 37V11C2.00159 9.67441 2.52888 8.40356 3.46622 7.46622C4.40356 6.52888 5.67441 6.00159 7 6H41C42.3256 6.00159 43.5964 6.52888 44.5338 7.46622C45.4711 8.40356 45.9984 9.67441 46 11V37C45.9984 38.3256 45.4711 39.5964 44.5338 40.5338C43.5964 41.4711 42.3256 41.9984 41 42ZM7 8C6.20435 8 5.44129 8.31607 4.87868 8.87868C4.31607 9.44129 4 10.2044 4 11V37C4 37.7956 4.31607 38.5587 4.87868 39.1213C5.44129 39.6839 6.20435 40 7 40H41C41.7957 40 42.5587 39.6839 43.1213 39.1213C43.6839 38.5587 44 37.7956 44 37V11C44 10.2044 43.6839 9.44129 43.1213 8.87868C42.5587 8.31607 41.7957 8 41 8H7Z" fill="white"/>
<path d="M39.9999 34H7.99994C7.46951 34 6.9608 33.7893 6.58573 33.4142C6.21065 33.0391 5.99994 32.5304 5.99994 32V12C5.99994 11.4696 6.21065 10.9609 6.58573 10.5858C6.9608 10.2107 7.46951 10 7.99994 10H39.9999C40.5304 10 41.0391 10.2107 41.4142 10.5858C41.7892 10.9609 41.9999 11.4696 41.9999 12V32C41.9999 32.5304 41.7892 33.0391 41.4142 33.4142C41.0391 33.7893 40.5304 34 39.9999 34ZM7.99994 12V32H39.9999V12H7.99994ZM39.9999 38H36.9999C36.7347 38 36.4804 37.8946 36.2928 37.7071C36.1053 37.5196 35.9999 37.2652 35.9999 37C35.9999 36.7348 36.1053 36.4804 36.2928 36.2929C36.4804 36.1054 36.7347 36 36.9999 36H39.9999C40.2652 36 40.5195 36.1054 40.707 36.2929C40.8946 36.4804 40.9999 36.7348 40.9999 37C40.9999 37.2652 40.8946 37.5196 40.707 37.7071C40.5195 37.8946 40.2652 38 39.9999 38ZM32.9999 38H29.9999C29.7347 38 29.4804 37.8946 29.2928 37.7071C29.1053 37.5196 28.9999 37.2652 28.9999 37C28.9999 36.7348 29.1053 36.4804 29.2928 36.2929C29.4804 36.1054 29.7347 36 29.9999 36H32.9999C33.2652 36 33.5195 36.1054 33.707 36.2929C33.8946 36.4804 33.9999 36.7348 33.9999 37C33.9999 37.2652 33.8946 37.5196 33.707 37.7071C33.5195 37.8946 33.2652 38 32.9999 38Z" fill="white"/>
<path d="M25 29C24.7633 28.9999 24.5343 28.9158 24.3538 28.7628C24.1732 28.6097 24.0528 28.3975 24.014 28.164L22.514 19.197L20.9 22.447C20.8166 22.614 20.688 22.7543 20.529 22.852C20.3699 22.9498 20.1867 23.001 20 23H12C11.7348 23 11.4804 22.8947 11.2929 22.7071C11.1054 22.5196 11 22.2652 11 22C11 21.7348 11.1054 21.4804 11.2929 21.2929C11.4804 21.1054 11.7348 21 12 21H19.382L22.105 15.553C22.1994 15.3641 22.3512 15.2099 22.5386 15.1126C22.726 15.0152 22.9395 14.9797 23.1483 15.0111C23.3572 15.0426 23.5507 15.1393 23.7012 15.2875C23.8517 15.4357 23.9514 15.6277 23.986 15.836L25.425 24.469L27.081 20.606C27.1581 20.4262 27.2863 20.2729 27.4496 20.1652C27.613 20.0575 27.8043 20 28 20H36C36.2652 20 36.5196 20.1054 36.7071 20.2929C36.8946 20.4804 37 20.7348 37 21C37 21.2652 36.8946 21.5196 36.7071 21.7071C36.5196 21.8947 36.2652 22 36 22H28.659L25.919 28.394C25.8419 28.5739 25.7137 28.7271 25.5504 28.8348C25.387 28.9426 25.1957 29 25 29Z" fill="#1470C5"/>
</svg>
