<svg width="19" height="19" viewBox="0 0 19 19" fill="none" xmlns="http://www.w3.org/2000/svg">
<path d="M17.266 18.6963L10.966 12.3963C10.466 12.7963 9.89102 13.113 9.24102 13.3463C8.59102 13.5796 7.89935 13.6963 7.16602 13.6963C5.34935 13.6963 3.81202 13.0673 2.55402 11.8093C1.29535 10.5506 0.666016 9.01296 0.666016 7.19629C0.666016 5.37962 1.29535 3.84196 2.55402 2.58329C3.81202 1.32529 5.34935 0.696289 7.16602 0.696289C8.98268 0.696289 10.5203 1.32529 11.779 2.58329C13.037 3.84196 13.666 5.37962 13.666 7.19629C13.666 7.92962 13.5493 8.62129 13.316 9.27129C13.0827 9.92129 12.766 10.4963 12.366 10.9963L18.666 17.2963L17.266 18.6963ZM7.16602 11.6963C8.41602 11.6963 9.47868 11.259 10.354 10.3843C11.2287 9.50896 11.666 8.44629 11.666 7.19629C11.666 5.94629 11.2287 4.88362 10.354 4.00829C9.47868 3.13362 8.41602 2.69629 7.16602 2.69629C5.91602 2.69629 4.85335 3.13362 3.97802 4.00829C3.10335 4.88362 2.66602 5.94629 2.66602 7.19629C2.66602 8.44629 3.10335 9.50896 3.97802 10.3843C4.85335 11.259 5.91602 11.6963 7.16602 11.6963Z" fill="#34ADC2"/>
</svg>
