<svg width="22" height="23" viewBox="0 0 22 23" fill="none" xmlns="http://www.w3.org/2000/svg">
<path fill-rule="evenodd" clip-rule="evenodd" d="M11.4309 14.7358L14.1809 17.4858C14.3098 17.6146 14.4846 17.6869 14.6668 17.6869C14.849 17.6869 15.0237 17.6146 15.1526 17.4858L17.9026 14.7358C17.9702 14.6729 18.0243 14.597 18.0619 14.5127C18.0995 14.4283 18.1197 14.3373 18.1213 14.245C18.1229 14.1527 18.106 14.061 18.0714 13.9754C18.0368 13.8898 17.9853 13.812 17.9201 13.7467C17.8548 13.6814 17.777 13.63 17.6914 13.5954C17.6058 13.5608 17.5141 13.5438 17.4218 13.5455C17.3295 13.5471 17.2384 13.5673 17.1541 13.6049C17.0698 13.6424 16.9939 13.6966 16.9309 13.7642L15.3543 15.3408V6C15.3543 5.81766 15.2818 5.6428 15.1529 5.51386C15.024 5.38493 14.8491 5.3125 14.6668 5.3125C14.4844 5.3125 14.3096 5.38493 14.1806 5.51386C14.0517 5.6428 13.9793 5.81766 13.9793 6V15.3408L12.4026 13.7642C12.3397 13.6966 12.2638 13.6424 12.1794 13.6049C12.0951 13.5673 12.0041 13.5471 11.9117 13.5455C11.8194 13.5438 11.7277 13.5608 11.6421 13.5954C11.5565 13.63 11.4788 13.6814 11.4135 13.7467C11.3482 13.812 11.2967 13.8898 11.2622 13.9754C11.2276 14.061 11.2106 14.1527 11.2122 14.245C11.2139 14.3373 11.2341 14.4283 11.2716 14.5127C11.3092 14.597 11.3634 14.6729 11.4309 14.7358ZM7.81927 5.51417C7.69036 5.38542 7.51562 5.3131 7.33344 5.3131C7.15125 5.3131 6.97651 5.38542 6.8476 5.51417L4.0976 8.26417C3.97616 8.39449 3.91005 8.56687 3.91319 8.74498C3.91634 8.92309 3.98849 9.09302 4.11445 9.21899C4.24041 9.34495 4.41035 9.4171 4.58846 9.42024C4.76657 9.42339 4.93894 9.35727 5.06927 9.23583L6.64594 7.65917V17C6.64594 17.1823 6.71837 17.3572 6.8473 17.4861C6.97623 17.6151 7.1511 17.6875 7.33344 17.6875C7.51577 17.6875 7.69064 17.6151 7.81957 17.4861C7.9485 17.3572 8.02094 17.1823 8.02094 17V7.65917L9.5976 9.23583C9.66054 9.30338 9.73644 9.35756 9.82078 9.39513C9.90511 9.43271 9.99615 9.45291 10.0885 9.45454C10.1808 9.45617 10.2725 9.43919 10.3581 9.40461C10.4437 9.37004 10.5214 9.31857 10.5867 9.25328C10.652 9.188 10.7035 9.11024 10.738 9.02463C10.7726 8.93903 10.7896 8.84733 10.788 8.75502C10.7864 8.66271 10.7661 8.57167 10.7286 8.48734C10.691 8.40301 10.6368 8.32711 10.5693 8.26417L7.81927 5.51417Z" fill="#334E59"/>
</svg>
