<svg width="54" height="58" viewBox="0 0 54 58" fill="none" xmlns="http://www.w3.org/2000/svg">
<path fill-rule="evenodd" clip-rule="evenodd" d="M0 12C0 5.37258 5.37258 0 12 0H41.2791C47.9065 0 53.2791 5.37258 53.2791 12V46C53.2791 52.6274 47.9065 58 41.2791 58H12C5.37259 58 0 52.6274 0 46V12ZM37.2058 41.5327C37.2058 47.3371 32.5004 52.0424 26.6961 52.0424C20.8917 52.0424 16.1864 47.3371 16.1864 41.5327C16.1864 35.7284 20.8917 31.023 26.6961 31.023C32.5004 31.023 37.2058 35.7284 37.2058 41.5327ZM18.9696 41.5327C18.9696 45.8 22.4289 49.2592 26.6961 49.2592C30.9633 49.2592 34.4226 45.8 34.4226 41.5327C34.4226 37.2655 30.9633 33.8062 26.6961 33.8062C22.4289 33.8062 18.9696 37.2655 18.9696 41.5327ZM26.6392 47.2092C29.7431 47.2092 32.2593 44.693 32.2593 41.5891C32.2593 38.4852 29.7431 35.9689 26.6392 35.9689C23.5352 35.9689 21.019 38.4852 21.019 41.5891C21.019 44.693 23.5352 47.2092 26.6392 47.2092ZM11.3527 23.267C11.3527 24.1361 10.6482 24.8406 9.77905 24.8406C8.90995 24.8406 8.20541 24.1361 8.20541 23.267C8.20541 22.3979 8.90995 21.6934 9.77905 21.6934C10.6482 21.6934 11.3527 22.3979 11.3527 23.267ZM35.0695 18.9957C36.249 18.9957 37.2052 18.0396 37.2052 16.8601C37.2052 15.6806 36.249 14.7244 35.0695 14.7244C33.89 14.7244 32.9339 15.6806 32.9339 16.8601C32.9339 18.0396 33.89 18.9957 35.0695 18.9957ZM35.0695 18.6557C34.0778 18.6557 33.2739 17.8518 33.2739 16.8601C33.2739 15.8684 34.0778 15.0645 35.0695 15.0645C36.0612 15.0645 36.8651 15.8684 36.8651 16.8601C36.8651 17.8518 36.0612 18.6557 35.0695 18.6557ZM45.0742 23.267C45.0742 24.1361 44.3696 24.8406 43.5005 24.8406C42.6314 24.8406 41.9269 24.1361 41.9269 23.267C41.9269 22.3979 42.6314 21.6934 43.5005 21.6934C44.3696 21.6934 45.0742 22.3979 45.0742 23.267ZM35.0697 19.3335C36.4354 19.3335 37.5426 18.2264 37.5426 16.8607C37.5426 15.4949 36.4354 14.3878 35.0697 14.3878C33.704 14.3878 32.5969 15.4949 32.5969 16.8607C32.5969 18.2264 33.704 19.3335 35.0697 19.3335ZM35.0697 19.2084C33.7731 19.2084 32.722 18.1573 32.722 16.8607C32.722 15.564 33.7731 14.5129 35.0697 14.5129C36.3663 14.5129 37.4174 15.564 37.4174 16.8607C37.4174 18.1573 36.3663 19.2084 35.0697 19.2084Z" fill="white"/>
</svg>
