<svg width="15" height="20" viewBox="0 0 15 20" fill="none" xmlns="http://www.w3.org/2000/svg">
<path d="M7.62064 12.7502C6.78411 12.7502 6.07305 12.4574 5.48748 11.8718C4.9019 11.2863 4.60912 10.5752 4.60912 9.73868V3.71563C4.60912 2.87909 4.9019 2.16804 5.48748 1.58246C6.07305 0.996889 6.78411 0.704102 7.62064 0.704102C8.45718 0.704102 9.16823 0.996889 9.75381 1.58246C10.3394 2.16804 10.6322 2.87909 10.6322 3.71563V9.73868C10.6322 10.5752 10.3394 11.2863 9.75381 11.8718C9.16823 12.4574 8.45718 12.7502 7.62064 12.7502ZM6.6168 19.7771V16.6903C4.87681 16.456 3.43797 15.6781 2.30028 14.3563C1.16259 13.0346 0.59375 11.4954 0.59375 9.73868H2.60143C2.60143 11.1273 3.09097 12.3109 4.07005 13.2893C5.04846 14.2683 6.23199 14.7579 7.62064 14.7579C9.00929 14.7579 10.1932 14.2683 11.1722 13.2893C12.1506 12.3109 12.6398 11.1273 12.6398 9.73868H14.6475C14.6475 11.4954 14.0787 13.0346 12.941 14.3563C11.8033 15.6781 10.3645 16.456 8.62448 16.6903V19.7771H6.6168ZM7.62064 10.7425C7.90506 10.7425 8.14364 10.6461 8.33638 10.4534C8.52845 10.2613 8.62448 10.0231 8.62448 9.73868V3.71563C8.62448 3.4312 8.52845 3.19262 8.33638 2.99989C8.14364 2.80782 7.90506 2.71178 7.62064 2.71178C7.33622 2.71178 7.09797 2.80782 6.90591 2.99989C6.71317 3.19262 6.6168 3.4312 6.6168 3.71563V9.73868C6.6168 10.0231 6.71317 10.2613 6.90591 10.4534C7.09797 10.6461 7.33622 10.7425 7.62064 10.7425Z" fill="#727272"/>
</svg>
