<svg width="36" height="35" viewBox="0 0 36 35" fill="none" xmlns="http://www.w3.org/2000/svg">
<g clip-path="url(#clip0_6_15080)">
<path d="M18.3379 0H18.3291C8.68006 0 0.833496 7.84875 0.833496 17.5C0.833496 21.3281 2.06725 24.8762 4.16506 27.7572L1.98412 34.2584L8.71068 32.1081C11.4779 33.9412 14.7788 35 18.3379 35C27.9869 35 35.8335 27.1491 35.8335 17.5C35.8335 7.85094 27.9869 0 18.3379 0ZM28.5207 24.7122C28.0985 25.9044 26.4229 26.8931 25.0863 27.1819C24.1719 27.3766 22.9776 27.5319 18.9569 25.865C13.8141 23.7344 10.5022 18.5084 10.2441 18.1694C9.99693 17.8303 8.166 15.4022 8.166 12.8909C8.166 10.3797 9.44131 9.15688 9.95537 8.63188C10.3776 8.20094 11.0754 8.00406 11.7447 8.00406C11.9613 8.00406 12.156 8.015 12.331 8.02375C12.8451 8.04562 13.1032 8.07625 13.4422 8.88781C13.8644 9.905 14.8926 12.4163 15.0151 12.6744C15.1397 12.9325 15.2644 13.2825 15.0894 13.6216C14.9254 13.9716 14.781 14.1269 14.5229 14.4244C14.2647 14.7219 14.0197 14.9494 13.7616 15.2688C13.5254 15.5466 13.2585 15.8441 13.556 16.3581C13.8535 16.8612 14.8816 18.5391 16.3954 19.8866C18.3488 21.6256 19.9326 22.1812 20.4991 22.4175C20.9213 22.5925 21.4244 22.5509 21.7329 22.2228C22.1244 21.8006 22.6079 21.1006 23.1001 20.4116C23.4501 19.9172 23.8919 19.8559 24.3557 20.0309C24.8282 20.195 27.3285 21.4309 27.8426 21.6869C28.3566 21.945 28.6957 22.0675 28.8204 22.2841C28.9429 22.5006 28.9429 23.5178 28.5207 24.7122Z" fill="#495363" fill-opacity="0.2"/>
</g>
<defs>
<clipPath id="clip0_6_15080">
<rect width="35" height="35" fill="white" transform="translate(0.833496)"/>
</clipPath>
</defs>
</svg>
